<svg width="40" height="40" viewBox="0 0 40 40" fill="none" xmlns="http://www.w3.org/2000/svg">
<rect x="0.5" y="0.5" width="39" height="39" stroke="#0C4498"/>
<g clip-path="url(#clip0_1173_8183)">
<path fill-rule="evenodd" clip-rule="evenodd" d="M13.2322 15.7322C13.7011 15.2634 14.337 15 15 15H17.5C17.9602 15 18.3333 15.3731 18.3333 15.8333C18.3333 16.2936 17.9602 16.6667 17.5 16.6667H15C14.779 16.6667 14.567 16.7545 14.4107 16.9107C14.2545 17.067 14.1667 17.279 14.1667 17.5V25C14.1667 25.221 14.2545 25.433 14.4107 25.5893C14.567 25.7455 14.779 25.8333 15 25.8333H22.5C22.721 25.8333 22.933 25.7455 23.0893 25.5893C23.2455 25.433 23.3333 25.221 23.3333 25V22.5C23.3333 22.0398 23.7064 21.6667 24.1667 21.6667C24.6269 21.6667 25 22.0398 25 22.5V25C25 25.663 24.7366 26.2989 24.2678 26.7678C23.7989 27.2366 23.163 27.5 22.5 27.5H15C14.337 27.5 13.7011 27.2366 13.2322 26.7678C12.7634 26.2989 12.5 25.663 12.5 25V17.5C12.5 16.837 12.7634 16.2011 13.2322 15.7322Z" fill="#0C4498"/>
<path fill-rule="evenodd" clip-rule="evenodd" d="M23.9944 12.3273C24.4822 11.8395 25.1438 11.5654 25.8337 11.5654C26.5235 11.5654 27.1851 11.8395 27.6729 12.3273C28.1607 12.8151 28.4348 13.4767 28.4348 14.1665C28.4348 14.8564 28.1607 15.518 27.6729 16.0058L20.5896 23.0891C20.4333 23.2454 20.2213 23.3332 20.0003 23.3332H17.5003C17.0401 23.3332 16.667 22.9601 16.667 22.4999V19.9999C16.667 19.7788 16.7548 19.5669 16.9111 19.4106L23.9944 12.3273ZM25.8337 13.2321C25.5858 13.2321 25.3482 13.3305 25.1729 13.5058L18.3337 20.345V21.6665H19.6551L26.4944 14.8273C26.6696 14.652 26.7681 14.4144 26.7681 14.1665C26.7681 13.9187 26.6696 13.681 26.4944 13.5058C26.3192 13.3305 26.0815 13.2321 25.8337 13.2321Z" fill="#0C4498"/>
<path fill-rule="evenodd" clip-rule="evenodd" d="M22.7441 13.5771C23.0695 13.2516 23.5972 13.2516 23.9226 13.5771L26.4226 16.0771C26.748 16.4025 26.748 16.9302 26.4226 17.2556C26.0972 17.581 25.5695 17.581 25.2441 17.2556L22.7441 14.7556C22.4186 14.4302 22.4186 13.9025 22.7441 13.5771Z" fill="#0C4498"/>
</g>
<defs>
<clipPath id="clip0_1173_8183">
<rect width="20" height="20" fill="white" transform="translate(10 10)"/>
</clipPath>
</defs>
</svg>
