<svg width="1094" height="495" viewBox="0 0 1094 495" fill="none" xmlns="http://www.w3.org/2000/svg">
<rect x="0.5" y="0.5" width="1093" height="494" rx="11.5" fill="white"/>
<rect x="0.5" y="0.5" width="1093" height="494" rx="11.5" stroke="#D6D6D6"/>
<path d="M17.161 41V27.725H22.273C23.611 27.725 24.616 28.031 25.288 28.643C25.96 29.255 26.296 30.155 26.296 31.343C26.296 32.039 26.164 32.63 25.9 33.116C25.636 33.602 25.315 33.977 24.937 34.241C24.559 34.505 24.199 34.655 23.857 34.691C24.205 34.715 24.541 34.805 24.865 34.961C25.189 35.117 25.453 35.363 25.657 35.699C25.867 36.029 25.972 36.476 25.972 37.04C25.972 37.49 25.972 37.94 25.972 38.39C25.972 38.834 25.972 39.281 25.972 39.731C25.972 40.013 25.996 40.274 26.044 40.514C26.092 40.748 26.152 40.91 26.224 41H23.839C23.779 40.892 23.725 40.727 23.677 40.505C23.635 40.277 23.614 40.019 23.614 39.731C23.614 39.323 23.614 38.924 23.614 38.534C23.614 38.138 23.614 37.733 23.614 37.319C23.614 36.773 23.461 36.359 23.155 36.077C22.849 35.795 22.387 35.654 21.769 35.654H18.844L19.474 34.853V41H17.161ZM19.474 34.655L18.844 33.764H21.787C22.177 33.764 22.528 33.674 22.84 33.494C23.152 33.308 23.398 33.05 23.578 32.72C23.764 32.39 23.857 32.003 23.857 31.559C23.857 30.911 23.671 30.425 23.299 30.101C22.927 29.777 22.399 29.615 21.715 29.615H18.781L19.474 28.778V34.655ZM29.1794 36.986V35.303H35.8664L35.5964 35.753C35.5964 35.717 35.5964 35.678 35.5964 35.636C35.5964 35.588 35.5964 35.549 35.5964 35.519C35.5964 35.105 35.5034 34.718 35.3174 34.358C35.1314 33.992 34.8494 33.698 34.4714 33.476C34.0934 33.248 33.6134 33.134 33.0314 33.134C32.4554 33.134 31.9544 33.257 31.5284 33.503C31.1084 33.743 30.7814 34.091 30.5474 34.547C30.3194 35.003 30.2054 35.549 30.2054 36.185C30.2054 36.839 30.3164 37.403 30.5384 37.877C30.7604 38.345 31.0844 38.705 31.5104 38.957C31.9424 39.203 32.4674 39.326 33.0854 39.326C33.5054 39.326 33.8684 39.287 34.1744 39.209C34.4804 39.131 34.7294 39.026 34.9214 38.894C35.1194 38.756 35.2664 38.609 35.3624 38.453C35.4644 38.297 35.5244 38.141 35.5424 37.985H37.9004C37.8644 38.387 37.7294 38.78 37.4954 39.164C37.2674 39.542 36.9464 39.887 36.5324 40.199C36.1184 40.505 35.6144 40.751 35.0204 40.937C34.4324 41.117 33.7604 41.207 33.0044 41.207C31.9784 41.207 31.0814 40.997 30.3134 40.577C29.5454 40.157 28.9454 39.572 28.5134 38.822C28.0874 38.072 27.8744 37.214 27.8744 36.248C27.8744 35.258 28.0904 34.391 28.5224 33.647C28.9604 32.903 29.5664 32.324 30.3404 31.91C31.1144 31.49 32.0024 31.28 33.0044 31.28C34.0364 31.28 34.9274 31.49 35.6774 31.91C36.4334 32.33 37.0154 32.915 37.4234 33.665C37.8314 34.409 38.0354 35.276 38.0354 36.266C38.0354 36.392 38.0324 36.527 38.0264 36.671C38.0204 36.815 38.0114 36.92 37.9994 36.986H29.1794ZM44.7118 41.198C43.7038 41.198 42.8128 40.991 42.0388 40.577C41.2648 40.163 40.6588 39.581 40.2208 38.831C39.7828 38.081 39.5638 37.202 39.5638 36.194C39.5638 35.192 39.7828 34.322 40.2208 33.584C40.6588 32.846 41.2648 32.279 42.0388 31.883C42.8128 31.481 43.7038 31.28 44.7118 31.28C45.4678 31.28 46.1368 31.391 46.7188 31.613C47.3008 31.835 47.7898 32.132 48.1858 32.504C48.5878 32.87 48.8938 33.275 49.1038 33.719C49.3138 34.157 49.4188 34.595 49.4188 35.033C49.4188 35.045 49.4188 35.057 49.4188 35.069C49.4188 35.081 49.4188 35.093 49.4188 35.105H47.0698C47.0698 35.075 47.0668 35.042 47.0608 35.006C47.0548 34.97 47.0488 34.934 47.0428 34.898C46.9948 34.592 46.8718 34.316 46.6738 34.07C46.4758 33.818 46.2118 33.617 45.8818 33.467C45.5518 33.317 45.1528 33.242 44.6848 33.242C44.1868 33.242 43.7308 33.353 43.3168 33.575C42.9088 33.791 42.5818 34.118 42.3358 34.556C42.0958 34.994 41.9758 35.54 41.9758 36.194C41.9758 36.842 42.0958 37.394 42.3358 37.85C42.5758 38.3 42.8998 38.645 43.3078 38.885C43.7218 39.119 44.1808 39.236 44.6848 39.236C45.2188 39.236 45.6538 39.155 45.9898 38.993C46.3318 38.825 46.5898 38.603 46.7638 38.327C46.9378 38.045 47.0368 37.739 47.0608 37.409H49.4188C49.4188 37.853 49.3168 38.3 49.1128 38.75C48.9088 39.194 48.6088 39.602 48.2128 39.974C47.8168 40.346 47.3248 40.643 46.7368 40.865C46.1548 41.087 45.4798 41.198 44.7118 41.198ZM52.2595 36.986V35.303H58.9465L58.6765 35.753C58.6765 35.717 58.6765 35.678 58.6765 35.636C58.6765 35.588 58.6765 35.549 58.6765 35.519C58.6765 35.105 58.5835 34.718 58.3975 34.358C58.2115 33.992 57.9295 33.698 57.5515 33.476C57.1735 33.248 56.6935 33.134 56.1115 33.134C55.5355 33.134 55.0345 33.257 54.6085 33.503C54.1885 33.743 53.8615 34.091 53.6275 34.547C53.3995 35.003 53.2855 35.549 53.2855 36.185C53.2855 36.839 53.3965 37.403 53.6185 37.877C53.8405 38.345 54.1645 38.705 54.5905 38.957C55.0225 39.203 55.5475 39.326 56.1655 39.326C56.5855 39.326 56.9485 39.287 57.2545 39.209C57.5605 39.131 57.8095 39.026 58.0015 38.894C58.1995 38.756 58.3465 38.609 58.4425 38.453C58.5445 38.297 58.6045 38.141 58.6225 37.985H60.9805C60.9445 38.387 60.8095 38.78 60.5755 39.164C60.3475 39.542 60.0265 39.887 59.6125 40.199C59.1985 40.505 58.6945 40.751 58.1005 40.937C57.5125 41.117 56.8405 41.207 56.0845 41.207C55.0585 41.207 54.1615 40.997 53.3935 40.577C52.6255 40.157 52.0255 39.572 51.5935 38.822C51.1675 38.072 50.9545 37.214 50.9545 36.248C50.9545 35.258 51.1705 34.391 51.6025 33.647C52.0405 32.903 52.6465 32.324 53.4205 31.91C54.1945 31.49 55.0825 31.28 56.0845 31.28C57.1165 31.28 58.0075 31.49 58.7575 31.91C59.5135 32.33 60.0955 32.915 60.5035 33.665C60.9115 34.409 61.1155 35.276 61.1155 36.266C61.1155 36.392 61.1125 36.527 61.1065 36.671C61.1005 36.815 61.0915 36.92 61.0795 36.986H52.2595ZM69.8259 41V36.761C69.8259 36.521 69.8259 36.311 69.8259 36.131C69.8259 35.945 69.8259 35.777 69.8259 35.627C69.8259 35.195 69.7629 34.808 69.6369 34.466C69.5169 34.118 69.3069 33.845 69.0069 33.647C68.7129 33.449 68.3049 33.35 67.7829 33.35C67.3269 33.35 66.9219 33.461 66.5679 33.683C66.2139 33.899 65.9349 34.199 65.7309 34.583C65.5329 34.961 65.4339 35.399 65.4339 35.897L64.6329 35.402C64.6329 34.604 64.8129 33.896 65.1729 33.278C65.5389 32.654 66.0279 32.165 66.6399 31.811C67.2519 31.457 67.9299 31.28 68.6739 31.28C69.4419 31.28 70.0869 31.43 70.6089 31.73C71.1369 32.03 71.5329 32.456 71.7969 33.008C72.0669 33.56 72.2019 34.208 72.2019 34.952C72.2019 35.24 72.2019 35.564 72.2019 35.924C72.2019 36.284 72.2019 36.638 72.2019 36.986V41H69.8259ZM63.0669 41V31.442H65.4339V41H63.0669ZM78.6386 41.18C78.2966 41.18 77.9486 41.147 77.5946 41.081C77.2406 41.015 76.9166 40.892 76.6226 40.712C76.3286 40.532 76.0916 40.268 75.9116 39.92C75.7316 39.572 75.6416 39.113 75.6416 38.543C75.6416 38.411 75.6416 38.279 75.6416 38.147C75.6416 38.009 75.6416 37.868 75.6416 37.724V33.332H73.3826V31.442H74.3006C74.6126 31.442 74.8586 31.43 75.0386 31.406C75.2186 31.376 75.3506 31.31 75.4346 31.208C75.5186 31.106 75.5726 30.947 75.5966 30.731C75.6266 30.509 75.6416 30.203 75.6416 29.813V28.292H78.0176V31.442H80.8616V33.332H78.0176V37.166C78.0176 37.28 78.0176 37.394 78.0176 37.508C78.0176 37.616 78.0176 37.721 78.0176 37.823C78.0176 38.267 78.0716 38.624 78.1796 38.894C78.2876 39.164 78.5426 39.299 78.9446 39.299C79.1366 39.299 79.3166 39.281 79.4846 39.245C79.6586 39.209 79.7876 39.173 79.8716 39.137V40.991C79.7576 41.033 79.5926 41.075 79.3766 41.117C79.1606 41.159 78.9146 41.18 78.6386 41.18ZM86.5279 41L89.9569 27.707H93.7009L97.1029 41H94.6639L91.8199 29.174H91.8379L88.9669 41H86.5279ZM88.7419 37.769V35.87H94.9159V37.769H88.7419ZM103.458 41.198C102.45 41.198 101.559 40.991 100.785 40.577C100.011 40.163 99.4049 39.581 98.9669 38.831C98.5289 38.081 98.3099 37.202 98.3099 36.194C98.3099 35.192 98.5289 34.322 98.9669 33.584C99.4049 32.846 100.011 32.279 100.785 31.883C101.559 31.481 102.45 31.28 103.458 31.28C104.214 31.28 104.883 31.391 105.465 31.613C106.047 31.835 106.536 32.132 106.932 32.504C107.334 32.87 107.64 33.275 107.85 33.719C108.06 34.157 108.165 34.595 108.165 35.033C108.165 35.045 108.165 35.057 108.165 35.069C108.165 35.081 108.165 35.093 108.165 35.105H105.816C105.816 35.075 105.813 35.042 105.807 35.006C105.801 34.97 105.795 34.934 105.789 34.898C105.741 34.592 105.618 34.316 105.42 34.07C105.222 33.818 104.958 33.617 104.628 33.467C104.298 33.317 103.899 33.242 103.431 33.242C102.933 33.242 102.477 33.353 102.063 33.575C101.655 33.791 101.328 34.118 101.082 34.556C100.842 34.994 100.722 35.54 100.722 36.194C100.722 36.842 100.842 37.394 101.082 37.85C101.322 38.3 101.646 38.645 102.054 38.885C102.468 39.119 102.927 39.236 103.431 39.236C103.965 39.236 104.4 39.155 104.736 38.993C105.078 38.825 105.336 38.603 105.51 38.327C105.684 38.045 105.783 37.739 105.807 37.409H108.165C108.165 37.853 108.063 38.3 107.859 38.75C107.655 39.194 107.355 39.602 106.959 39.974C106.563 40.346 106.071 40.643 105.483 40.865C104.901 41.087 104.226 41.198 103.458 41.198ZM114.41 41.18C114.068 41.18 113.72 41.147 113.366 41.081C113.012 41.015 112.688 40.892 112.394 40.712C112.1 40.532 111.863 40.268 111.683 39.92C111.503 39.572 111.413 39.113 111.413 38.543C111.413 38.411 111.413 38.279 111.413 38.147C111.413 38.009 111.413 37.868 111.413 37.724V33.332H109.154V31.442H110.072C110.384 31.442 110.63 31.43 110.81 31.406C110.99 31.376 111.122 31.31 111.206 31.208C111.29 31.106 111.344 30.947 111.368 30.731C111.398 30.509 111.413 30.203 111.413 29.813V28.292H113.789V31.442H116.633V33.332H113.789V37.166C113.789 37.28 113.789 37.394 113.789 37.508C113.789 37.616 113.789 37.721 113.789 37.823C113.789 38.267 113.843 38.624 113.951 38.894C114.059 39.164 114.314 39.299 114.716 39.299C114.908 39.299 115.088 39.281 115.256 39.245C115.43 39.209 115.559 39.173 115.643 39.137V40.991C115.529 41.033 115.364 41.075 115.148 41.117C114.932 41.159 114.686 41.18 114.41 41.18ZM118.375 41V31.442H120.715V41H118.375ZM119.554 29.678C119.17 29.678 118.834 29.576 118.546 29.372C118.264 29.162 118.123 28.871 118.123 28.499C118.123 28.133 118.264 27.848 118.546 27.644C118.834 27.44 119.17 27.338 119.554 27.338C119.932 27.338 120.262 27.44 120.544 27.644C120.826 27.848 120.967 28.133 120.967 28.499C120.967 28.871 120.826 29.162 120.544 29.372C120.262 29.576 119.932 29.678 119.554 29.678ZM131.449 31.442L128.452 41H125.275L122.206 31.442H124.654L127.057 40.172H126.679L129.001 31.442H131.449ZM132.93 41V31.442H135.27V41H132.93ZM134.109 29.678C133.725 29.678 133.389 29.576 133.101 29.372C132.819 29.162 132.678 28.871 132.678 28.499C132.678 28.133 132.819 27.848 133.101 27.644C133.389 27.44 133.725 27.338 134.109 27.338C134.487 27.338 134.817 27.44 135.099 27.644C135.381 27.848 135.522 28.133 135.522 28.499C135.522 28.871 135.381 29.162 135.099 29.372C134.817 29.576 134.487 29.678 134.109 29.678ZM142.008 41.18C141.666 41.18 141.318 41.147 140.964 41.081C140.61 41.015 140.286 40.892 139.992 40.712C139.698 40.532 139.461 40.268 139.281 39.92C139.101 39.572 139.011 39.113 139.011 38.543C139.011 38.411 139.011 38.279 139.011 38.147C139.011 38.009 139.011 37.868 139.011 37.724V33.332H136.752V31.442H137.67C137.982 31.442 138.228 31.43 138.408 31.406C138.588 31.376 138.72 31.31 138.804 31.208C138.888 31.106 138.942 30.947 138.966 30.731C138.996 30.509 139.011 30.203 139.011 29.813V28.292H141.387V31.442H144.231V33.332H141.387V37.166C141.387 37.28 141.387 37.394 141.387 37.508C141.387 37.616 141.387 37.721 141.387 37.823C141.387 38.267 141.441 38.624 141.549 38.894C141.657 39.164 141.912 39.299 142.314 39.299C142.506 39.299 142.686 39.281 142.854 39.245C143.028 39.209 143.157 39.173 143.241 39.137V40.991C143.127 41.033 142.962 41.075 142.746 41.117C142.53 41.159 142.284 41.18 142.008 41.18ZM146.639 45.104C146.357 45.104 146.105 45.089 145.883 45.059C145.661 45.035 145.523 45.011 145.469 44.987V43.142C145.547 43.178 145.679 43.205 145.865 43.223C146.057 43.247 146.255 43.259 146.459 43.259C146.789 43.259 147.074 43.193 147.314 43.061C147.56 42.929 147.77 42.746 147.944 42.512C148.118 42.284 148.256 42.017 148.358 41.711L148.565 41.108L145.271 31.442H147.746L150.005 39.416H149.717L151.922 31.442H154.352L151.004 41.585C150.77 42.287 150.485 42.902 150.149 43.43C149.819 43.958 149.378 44.369 148.826 44.663C148.274 44.957 147.545 45.104 146.639 45.104ZM161.639 29.615L162.71 28.436V34.187L161.972 33.548H167.39V35.447H161.972L162.71 34.763V41H160.352V27.725H168.191V29.615H161.639ZM170.332 36.986V35.303H177.019L176.749 35.753C176.749 35.717 176.749 35.678 176.749 35.636C176.749 35.588 176.749 35.549 176.749 35.519C176.749 35.105 176.656 34.718 176.47 34.358C176.284 33.992 176.002 33.698 175.624 33.476C175.246 33.248 174.766 33.134 174.184 33.134C173.608 33.134 173.107 33.257 172.681 33.503C172.261 33.743 171.934 34.091 171.7 34.547C171.472 35.003 171.358 35.549 171.358 36.185C171.358 36.839 171.469 37.403 171.691 37.877C171.913 38.345 172.237 38.705 172.663 38.957C173.095 39.203 173.62 39.326 174.238 39.326C174.658 39.326 175.021 39.287 175.327 39.209C175.633 39.131 175.882 39.026 176.074 38.894C176.272 38.756 176.419 38.609 176.515 38.453C176.617 38.297 176.677 38.141 176.695 37.985H179.053C179.017 38.387 178.882 38.78 178.648 39.164C178.42 39.542 178.099 39.887 177.685 40.199C177.271 40.505 176.767 40.751 176.173 40.937C175.585 41.117 174.913 41.207 174.157 41.207C173.131 41.207 172.234 40.997 171.466 40.577C170.698 40.157 170.098 39.572 169.666 38.822C169.24 38.072 169.027 37.214 169.027 36.248C169.027 35.258 169.243 34.391 169.675 33.647C170.113 32.903 170.719 32.324 171.493 31.91C172.267 31.49 173.155 31.28 174.157 31.28C175.189 31.28 176.08 31.49 176.83 31.91C177.586 32.33 178.168 32.915 178.576 33.665C178.984 34.409 179.188 35.276 179.188 36.266C179.188 36.392 179.185 36.527 179.179 36.671C179.173 36.815 179.164 36.92 179.152 36.986H170.332ZM182.021 36.986V35.303H188.708L188.438 35.753C188.438 35.717 188.438 35.678 188.438 35.636C188.438 35.588 188.438 35.549 188.438 35.519C188.438 35.105 188.345 34.718 188.159 34.358C187.973 33.992 187.691 33.698 187.313 33.476C186.935 33.248 186.455 33.134 185.873 33.134C185.297 33.134 184.796 33.257 184.37 33.503C183.95 33.743 183.623 34.091 183.389 34.547C183.161 35.003 183.047 35.549 183.047 36.185C183.047 36.839 183.158 37.403 183.38 37.877C183.602 38.345 183.926 38.705 184.352 38.957C184.784 39.203 185.309 39.326 185.927 39.326C186.347 39.326 186.71 39.287 187.016 39.209C187.322 39.131 187.571 39.026 187.763 38.894C187.961 38.756 188.108 38.609 188.204 38.453C188.306 38.297 188.366 38.141 188.384 37.985H190.742C190.706 38.387 190.571 38.78 190.337 39.164C190.109 39.542 189.788 39.887 189.374 40.199C188.96 40.505 188.456 40.751 187.862 40.937C187.274 41.117 186.602 41.207 185.846 41.207C184.82 41.207 183.923 40.997 183.155 40.577C182.387 40.157 181.787 39.572 181.355 38.822C180.929 38.072 180.716 37.214 180.716 36.248C180.716 35.258 180.932 34.391 181.364 33.647C181.802 32.903 182.408 32.324 183.182 31.91C183.956 31.49 184.844 31.28 185.846 31.28C186.878 31.28 187.769 31.49 188.519 31.91C189.275 32.33 189.857 32.915 190.265 33.665C190.673 34.409 190.877 35.276 190.877 36.266C190.877 36.392 190.874 36.527 190.868 36.671C190.862 36.815 190.853 36.92 190.841 36.986H182.021ZM196.798 41.198C196.012 41.198 195.283 41.009 194.611 40.631C193.945 40.247 193.411 39.683 193.009 38.939C192.607 38.195 192.406 37.28 192.406 36.194C192.406 35.138 192.61 34.244 193.018 33.512C193.432 32.78 193.972 32.225 194.638 31.847C195.31 31.469 196.03 31.28 196.798 31.28C197.548 31.28 198.241 31.466 198.877 31.838C199.513 32.204 200.023 32.714 200.407 33.368C200.791 34.022 200.983 34.772 200.983 35.618C200.983 35.642 200.983 35.666 200.983 35.69C200.983 35.714 200.983 35.738 200.983 35.762L199.813 35.789C199.813 35.771 199.813 35.753 199.813 35.735C199.813 35.711 199.813 35.69 199.813 35.672C199.813 35.198 199.693 34.784 199.453 34.43C199.219 34.076 198.913 33.8 198.535 33.602C198.163 33.398 197.767 33.296 197.347 33.296C196.657 33.296 196.069 33.53 195.583 33.998C195.097 34.46 194.854 35.192 194.854 36.194C194.854 37.19 195.097 37.925 195.583 38.399C196.069 38.873 196.657 39.11 197.347 39.11C197.785 39.11 198.19 39.005 198.562 38.795C198.934 38.585 199.234 38.297 199.462 37.931C199.696 37.559 199.813 37.133 199.813 36.653L200.983 36.707C200.983 37.547 200.794 38.309 200.416 38.993C200.044 39.671 199.543 40.208 198.913 40.604C198.283 41 197.578 41.198 196.798 41.198ZM199.813 41V26.933H202.189V41H199.813Z" fill="#141414"/>
<path d="M16.8852 70V68.902C16.9172 68.754 17.0152 68.574 17.1792 68.362C17.3432 68.146 17.5432 67.916 17.7792 67.672C18.0152 67.428 18.2632 67.184 18.5232 66.94C18.7872 66.696 19.0332 66.472 19.2612 66.268C19.5412 66.012 19.8152 65.748 20.0832 65.476C20.3512 65.2 20.5732 64.91 20.7492 64.606C20.9292 64.298 21.0192 63.974 21.0192 63.634C21.0192 63.154 20.9052 62.784 20.6772 62.524C20.4532 62.26 20.1112 62.128 19.6512 62.128C19.2832 62.128 18.9892 62.206 18.7692 62.362C18.5492 62.518 18.3912 62.738 18.2952 63.022C18.1992 63.302 18.1512 63.63 18.1512 64.006H16.8432C16.8432 63.41 16.9472 62.89 17.1552 62.446C17.3672 61.998 17.6832 61.652 18.1032 61.408C18.5232 61.16 19.0452 61.036 19.6692 61.036C20.2572 61.036 20.7472 61.148 21.1392 61.372C21.5352 61.596 21.8312 61.904 22.0272 62.296C22.2272 62.688 22.3272 63.138 22.3272 63.646C22.3272 63.982 22.2632 64.304 22.1352 64.612C22.0112 64.916 21.8472 65.202 21.6432 65.47C21.4432 65.738 21.2272 65.986 20.9952 66.214C20.7632 66.442 20.5432 66.648 20.3352 66.832C19.9952 67.128 19.6832 67.408 19.3992 67.672C19.1192 67.932 18.8872 68.168 18.7032 68.38C18.5232 68.588 18.4132 68.764 18.3732 68.908H22.3512V70H16.8852ZM26.6407 70.126C26.1327 70.126 25.6987 70.008 25.3387 69.772C24.9787 69.536 24.6867 69.21 24.4627 68.794C24.2387 68.374 24.0747 67.89 23.9707 67.342C23.8667 66.794 23.8147 66.212 23.8147 65.596C23.8147 64.98 23.8667 64.398 23.9707 63.85C24.0747 63.298 24.2387 62.812 24.4627 62.392C24.6867 61.968 24.9787 61.636 25.3387 61.396C25.6987 61.156 26.1327 61.036 26.6407 61.036C27.1527 61.036 27.5887 61.156 27.9487 61.396C28.3087 61.636 28.5987 61.968 28.8187 62.392C29.0427 62.812 29.2067 63.298 29.3107 63.85C29.4147 64.398 29.4667 64.98 29.4667 65.596C29.4667 66.212 29.4147 66.794 29.3107 67.342C29.2067 67.89 29.0427 68.374 28.8187 68.794C28.5987 69.21 28.3087 69.536 27.9487 69.772C27.5887 70.008 27.1527 70.126 26.6407 70.126ZM26.6407 69.046C26.9807 69.046 27.2607 68.92 27.4807 68.668C27.7047 68.416 27.8727 68.034 27.9847 67.522C28.0967 67.01 28.1527 66.368 28.1527 65.596C28.1527 64.82 28.0967 64.178 27.9847 63.67C27.8727 63.158 27.7047 62.774 27.4807 62.518C27.2607 62.262 26.9807 62.134 26.6407 62.134C26.3047 62.134 26.0247 62.262 25.8007 62.518C25.5767 62.774 25.4087 63.158 25.2967 63.67C25.1847 64.178 25.1287 64.82 25.1287 65.596C25.1287 66.372 25.1847 67.016 25.2967 67.528C25.4087 68.036 25.5767 68.416 25.8007 68.668C26.0247 68.92 26.3047 69.046 26.6407 69.046ZM30.8422 70V68.902C30.8742 68.754 30.9722 68.574 31.1362 68.362C31.3002 68.146 31.5002 67.916 31.7362 67.672C31.9722 67.428 32.2202 67.184 32.4802 66.94C32.7442 66.696 32.9902 66.472 33.2182 66.268C33.4982 66.012 33.7722 65.748 34.0402 65.476C34.3082 65.2 34.5302 64.91 34.7062 64.606C34.8862 64.298 34.9762 63.974 34.9762 63.634C34.9762 63.154 34.8622 62.784 34.6342 62.524C34.4102 62.26 34.0682 62.128 33.6082 62.128C33.2402 62.128 32.9462 62.206 32.7262 62.362C32.5062 62.518 32.3482 62.738 32.2522 63.022C32.1562 63.302 32.1082 63.63 32.1082 64.006H30.8002C30.8002 63.41 30.9042 62.89 31.1122 62.446C31.3242 61.998 31.6402 61.652 32.0602 61.408C32.4802 61.16 33.0022 61.036 33.6262 61.036C34.2142 61.036 34.7042 61.148 35.0962 61.372C35.4922 61.596 35.7882 61.904 35.9842 62.296C36.1842 62.688 36.2842 63.138 36.2842 63.646C36.2842 63.982 36.2202 64.304 36.0922 64.612C35.9682 64.916 35.8042 65.202 35.6002 65.47C35.4002 65.738 35.1842 65.986 34.9522 66.214C34.7202 66.442 34.5002 66.648 34.2922 66.832C33.9522 67.128 33.6402 67.408 33.3562 67.672C33.0762 67.932 32.8442 68.168 32.6602 68.38C32.4802 68.588 32.3702 68.764 32.3302 68.908H36.3082V70H30.8422ZM40.8736 70V68.104H37.2556V67.126L40.4116 61.126H42.1456V67.036H43.2976V68.104H42.1456V70H40.8736ZM38.3176 67.672L37.9276 67.036H40.8736V61.996L41.1736 62.068L38.3176 67.672Z" fill="#737373"/>
<path d="M22.162 156.38H18.676L18.358 158.9C18.37 158.856 18.41 158.798 18.478 158.726C18.55 158.654 18.652 158.582 18.784 158.51C18.92 158.434 19.088 158.37 19.288 158.318C19.488 158.266 19.72 158.24 19.984 158.24C20.76 158.24 21.35 158.5 21.754 159.02C22.158 159.54 22.36 160.222 22.36 161.066C22.36 161.73 22.25 162.29 22.03 162.746C21.81 163.202 21.486 163.548 21.058 163.784C20.63 164.016 20.106 164.132 19.486 164.132C18.978 164.132 18.542 164.058 18.178 163.91C17.818 163.758 17.526 163.554 17.302 163.298C17.078 163.038 16.914 162.746 16.81 162.422C16.706 162.094 16.654 161.754 16.654 161.402C16.654 161.398 16.654 161.394 16.654 161.39C16.654 161.386 16.654 161.382 16.654 161.378H18.22C18.22 161.382 18.22 161.386 18.22 161.39C18.22 161.394 18.22 161.398 18.22 161.402C18.232 161.886 18.342 162.252 18.55 162.5C18.762 162.748 19.082 162.872 19.51 162.872C19.782 162.872 20.01 162.808 20.194 162.68C20.382 162.548 20.524 162.352 20.62 162.092C20.72 161.828 20.77 161.496 20.77 161.096C20.77 160.564 20.674 160.154 20.482 159.866C20.294 159.578 20 159.434 19.6 159.434C19.356 159.434 19.142 159.482 18.958 159.578C18.774 159.67 18.624 159.784 18.508 159.92C18.392 160.056 18.308 160.188 18.256 160.316L16.75 159.932L17.386 155.15H22.162V156.38ZM26.6519 164.132C26.1159 164.132 25.6579 164.012 25.2779 163.772C24.9019 163.532 24.5959 163.202 24.3599 162.782C24.1279 162.362 23.9579 161.88 23.8499 161.336C23.7419 160.788 23.6879 160.208 23.6879 159.596C23.6879 158.984 23.7419 158.404 23.8499 157.856C23.9579 157.304 24.1279 156.816 24.3599 156.392C24.5959 155.968 24.9019 155.634 25.2779 155.39C25.6579 155.146 26.1159 155.024 26.6519 155.024C27.1879 155.024 27.6439 155.146 28.0199 155.39C28.3999 155.634 28.7059 155.968 28.9379 156.392C29.1699 156.816 29.3399 157.304 29.4479 157.856C29.5599 158.404 29.6159 158.984 29.6159 159.596C29.6159 160.208 29.5599 160.788 29.4479 161.336C29.3399 161.88 29.1699 162.362 28.9379 162.782C28.7059 163.202 28.3999 163.532 28.0199 163.772C27.6439 164.012 27.1879 164.132 26.6519 164.132ZM26.6519 162.872C26.9559 162.872 27.2079 162.758 27.4079 162.53C27.6079 162.298 27.7599 161.94 27.8639 161.456C27.9679 160.972 28.0199 160.352 28.0199 159.596C28.0199 158.836 27.9679 158.214 27.8639 157.73C27.7599 157.246 27.6079 156.89 27.4079 156.662C27.2079 156.43 26.9559 156.314 26.6519 156.314C26.3519 156.314 26.0999 156.43 25.8959 156.662C25.6919 156.89 25.5379 157.246 25.4339 157.73C25.3299 158.214 25.2779 158.836 25.2779 159.596C25.2779 160.356 25.3299 160.978 25.4339 161.462C25.5379 161.942 25.6919 162.298 25.8959 162.53C26.0999 162.758 26.3519 162.872 26.6519 162.872ZM33.7066 164.132C33.1706 164.132 32.7126 164.012 32.3326 163.772C31.9566 163.532 31.6506 163.202 31.4146 162.782C31.1826 162.362 31.0126 161.88 30.9046 161.336C30.7966 160.788 30.7426 160.208 30.7426 159.596C30.7426 158.984 30.7966 158.404 30.9046 157.856C31.0126 157.304 31.1826 156.816 31.4146 156.392C31.6506 155.968 31.9566 155.634 32.3326 155.39C32.7126 155.146 33.1706 155.024 33.7066 155.024C34.2426 155.024 34.6986 155.146 35.0746 155.39C35.4546 155.634 35.7606 155.968 35.9926 156.392C36.2246 156.816 36.3946 157.304 36.5026 157.856C36.6146 158.404 36.6706 158.984 36.6706 159.596C36.6706 160.208 36.6146 160.788 36.5026 161.336C36.3946 161.88 36.2246 162.362 35.9926 162.782C35.7606 163.202 35.4546 163.532 35.0746 163.772C34.6986 164.012 34.2426 164.132 33.7066 164.132ZM33.7066 162.872C34.0106 162.872 34.2626 162.758 34.4626 162.53C34.6626 162.298 34.8146 161.94 34.9186 161.456C35.0226 160.972 35.0746 160.352 35.0746 159.596C35.0746 158.836 35.0226 158.214 34.9186 157.73C34.8146 157.246 34.6626 156.89 34.4626 156.662C34.2626 156.43 34.0106 156.314 33.7066 156.314C33.4066 156.314 33.1546 156.43 32.9506 156.662C32.7466 156.89 32.5926 157.246 32.4886 157.73C32.3846 158.214 32.3326 158.836 32.3326 159.596C32.3326 160.356 32.3846 160.978 32.4886 161.462C32.5926 161.942 32.7466 162.298 32.9506 162.53C33.1546 162.758 33.4066 162.872 33.7066 162.872Z" fill="#525252"/>
<path d="M19.954 214V212.2H16.27V211.066L19.426 205.132H21.496V210.97H22.606V212.2H21.496V214H19.954ZM17.506 211.684L17.056 210.97H19.954V206.158L20.296 206.248L17.506 211.684ZM26.5464 214.132C26.0104 214.132 25.5524 214.012 25.1724 213.772C24.7964 213.532 24.4904 213.202 24.2544 212.782C24.0224 212.362 23.8524 211.88 23.7444 211.336C23.6364 210.788 23.5824 210.208 23.5824 209.596C23.5824 208.984 23.6364 208.404 23.7444 207.856C23.8524 207.304 24.0224 206.816 24.2544 206.392C24.4904 205.968 24.7964 205.634 25.1724 205.39C25.5524 205.146 26.0104 205.024 26.5464 205.024C27.0824 205.024 27.5384 205.146 27.9144 205.39C28.2944 205.634 28.6004 205.968 28.8324 206.392C29.0644 206.816 29.2344 207.304 29.3424 207.856C29.4544 208.404 29.5104 208.984 29.5104 209.596C29.5104 210.208 29.4544 210.788 29.3424 211.336C29.2344 211.88 29.0644 212.362 28.8324 212.782C28.6004 213.202 28.2944 213.532 27.9144 213.772C27.5384 214.012 27.0824 214.132 26.5464 214.132ZM26.5464 212.872C26.8504 212.872 27.1024 212.758 27.3024 212.53C27.5024 212.298 27.6544 211.94 27.7584 211.456C27.8624 210.972 27.9144 210.352 27.9144 209.596C27.9144 208.836 27.8624 208.214 27.7584 207.73C27.6544 207.246 27.5024 206.89 27.3024 206.662C27.1024 206.43 26.8504 206.314 26.5464 206.314C26.2464 206.314 25.9944 206.43 25.7904 206.662C25.5864 206.89 25.4324 207.246 25.3284 207.73C25.2244 208.214 25.1724 208.836 25.1724 209.596C25.1724 210.356 25.2244 210.978 25.3284 211.462C25.4324 211.942 25.5864 212.298 25.7904 212.53C25.9944 212.758 26.2464 212.872 26.5464 212.872ZM33.6011 214.132C33.0651 214.132 32.6071 214.012 32.2271 213.772C31.8511 213.532 31.5451 213.202 31.3091 212.782C31.0771 212.362 30.9071 211.88 30.7991 211.336C30.6911 210.788 30.6371 210.208 30.6371 209.596C30.6371 208.984 30.6911 208.404 30.7991 207.856C30.9071 207.304 31.0771 206.816 31.3091 206.392C31.5451 205.968 31.8511 205.634 32.2271 205.39C32.6071 205.146 33.0651 205.024 33.6011 205.024C34.1371 205.024 34.5931 205.146 34.9691 205.39C35.3491 205.634 35.6551 205.968 35.8871 206.392C36.1191 206.816 36.2891 207.304 36.3971 207.856C36.5091 208.404 36.5651 208.984 36.5651 209.596C36.5651 210.208 36.5091 210.788 36.3971 211.336C36.2891 211.88 36.1191 212.362 35.8871 212.782C35.6551 213.202 35.3491 213.532 34.9691 213.772C34.5931 214.012 34.1371 214.132 33.6011 214.132ZM33.6011 212.872C33.9051 212.872 34.1571 212.758 34.3571 212.53C34.5571 212.298 34.7091 211.94 34.8131 211.456C34.9171 210.972 34.9691 210.352 34.9691 209.596C34.9691 208.836 34.9171 208.214 34.8131 207.73C34.7091 207.246 34.5571 206.89 34.3571 206.662C34.1571 206.43 33.9051 206.314 33.6011 206.314C33.3011 206.314 33.0491 206.43 32.8451 206.662C32.6411 206.89 32.4871 207.246 32.3831 207.73C32.2791 208.214 32.2271 208.836 32.2271 209.596C32.2271 210.356 32.2791 210.978 32.3831 211.462C32.4871 211.942 32.6411 212.298 32.8451 212.53C33.0491 212.758 33.3011 212.872 33.6011 212.872Z" fill="#525252"/>
<path d="M20.848 259.338C21.2 259.35 21.494 259.448 21.73 259.632C21.97 259.816 22.152 260.062 22.276 260.37C22.4 260.674 22.462 261.014 22.462 261.39C22.462 261.89 22.36 262.348 22.156 262.764C21.956 263.18 21.644 263.512 21.22 263.76C20.796 264.008 20.254 264.132 19.594 264.132C19.034 264.132 18.566 264.06 18.19 263.916C17.814 263.768 17.514 263.562 17.29 263.298C17.066 263.03 16.904 262.718 16.804 262.362C16.704 262.006 16.654 261.622 16.654 261.21C16.654 261.206 16.654 261.202 16.654 261.198C16.654 261.194 16.654 261.19 16.654 261.186H18.238C18.238 261.19 18.238 261.194 18.238 261.198C18.238 261.202 18.238 261.206 18.238 261.21C18.238 261.646 18.294 261.984 18.406 262.224C18.518 262.464 18.676 262.632 18.88 262.728C19.084 262.824 19.328 262.872 19.612 262.872C19.992 262.872 20.296 262.752 20.524 262.512C20.756 262.268 20.872 261.88 20.872 261.348C20.872 261.144 20.85 260.958 20.806 260.79C20.762 260.618 20.686 260.472 20.578 260.352C20.474 260.228 20.332 260.132 20.152 260.064C19.972 259.996 19.744 259.962 19.468 259.962H19.156V258.81H19.468C19.74 258.81 19.966 258.774 20.146 258.702C20.326 258.63 20.468 258.534 20.572 258.414C20.68 258.29 20.756 258.15 20.8 257.994C20.848 257.838 20.872 257.676 20.872 257.508C20.872 257.084 20.758 256.776 20.53 256.584C20.306 256.392 20.008 256.296 19.636 256.296C19.224 256.296 18.888 256.408 18.628 256.632C18.368 256.856 18.238 257.26 18.238 257.844H16.654C16.654 257.452 16.71 257.086 16.822 256.746C16.938 256.406 17.114 256.108 17.35 255.852C17.586 255.592 17.89 255.39 18.262 255.246C18.638 255.098 19.086 255.024 19.606 255.024C20.27 255.024 20.81 255.136 21.226 255.36C21.646 255.584 21.956 255.88 22.156 256.248C22.36 256.612 22.462 257.004 22.462 257.424C22.462 257.76 22.4 258.07 22.276 258.354C22.152 258.638 21.97 258.87 21.73 259.05C21.494 259.226 21.2 259.322 20.848 259.338ZM26.7573 264.132C26.2213 264.132 25.7633 264.012 25.3833 263.772C25.0073 263.532 24.7013 263.202 24.4653 262.782C24.2333 262.362 24.0633 261.88 23.9553 261.336C23.8473 260.788 23.7933 260.208 23.7933 259.596C23.7933 258.984 23.8473 258.404 23.9553 257.856C24.0633 257.304 24.2333 256.816 24.4653 256.392C24.7013 255.968 25.0073 255.634 25.3833 255.39C25.7633 255.146 26.2213 255.024 26.7573 255.024C27.2933 255.024 27.7493 255.146 28.1253 255.39C28.5053 255.634 28.8113 255.968 29.0433 256.392C29.2753 256.816 29.4453 257.304 29.5533 257.856C29.6653 258.404 29.7213 258.984 29.7213 259.596C29.7213 260.208 29.6653 260.788 29.5533 261.336C29.4453 261.88 29.2753 262.362 29.0433 262.782C28.8113 263.202 28.5053 263.532 28.1253 263.772C27.7493 264.012 27.2933 264.132 26.7573 264.132ZM26.7573 262.872C27.0613 262.872 27.3133 262.758 27.5133 262.53C27.7133 262.298 27.8653 261.94 27.9693 261.456C28.0733 260.972 28.1253 260.352 28.1253 259.596C28.1253 258.836 28.0733 258.214 27.9693 257.73C27.8653 257.246 27.7133 256.89 27.5133 256.662C27.3133 256.43 27.0613 256.314 26.7573 256.314C26.4573 256.314 26.2053 256.43 26.0013 256.662C25.7973 256.89 25.6433 257.246 25.5393 257.73C25.4353 258.214 25.3833 258.836 25.3833 259.596C25.3833 260.356 25.4353 260.978 25.5393 261.462C25.6433 261.942 25.7973 262.298 26.0013 262.53C26.2053 262.758 26.4573 262.872 26.7573 262.872ZM33.812 264.132C33.276 264.132 32.818 264.012 32.438 263.772C32.062 263.532 31.756 263.202 31.52 262.782C31.288 262.362 31.118 261.88 31.01 261.336C30.902 260.788 30.848 260.208 30.848 259.596C30.848 258.984 30.902 258.404 31.01 257.856C31.118 257.304 31.288 256.816 31.52 256.392C31.756 255.968 32.062 255.634 32.438 255.39C32.818 255.146 33.276 255.024 33.812 255.024C34.348 255.024 34.804 255.146 35.18 255.39C35.56 255.634 35.866 255.968 36.098 256.392C36.33 256.816 36.5 257.304 36.608 257.856C36.72 258.404 36.776 258.984 36.776 259.596C36.776 260.208 36.72 260.788 36.608 261.336C36.5 261.88 36.33 262.362 36.098 262.782C35.866 263.202 35.56 263.532 35.18 263.772C34.804 264.012 34.348 264.132 33.812 264.132ZM33.812 262.872C34.116 262.872 34.368 262.758 34.568 262.53C34.768 262.298 34.92 261.94 35.024 261.456C35.128 260.972 35.18 260.352 35.18 259.596C35.18 258.836 35.128 258.214 35.024 257.73C34.92 257.246 34.768 256.89 34.568 256.662C34.368 256.43 34.116 256.314 33.812 256.314C33.512 256.314 33.26 256.43 33.056 256.662C32.852 256.89 32.698 257.246 32.594 257.73C32.49 258.214 32.438 258.836 32.438 259.596C32.438 260.356 32.49 260.978 32.594 261.462C32.698 261.942 32.852 262.298 33.056 262.53C33.26 262.758 33.512 262.872 33.812 262.872Z" fill="#525252"/>
<path d="M16.612 314V312.686C16.644 312.57 16.744 312.416 16.912 312.224C17.084 312.028 17.292 311.814 17.536 311.582C17.784 311.35 18.042 311.116 18.31 310.88C18.578 310.644 18.828 310.426 19.06 310.226C19.34 309.982 19.614 309.728 19.882 309.464C20.15 309.2 20.372 308.922 20.548 308.63C20.724 308.338 20.812 308.028 20.812 307.7C20.812 307.264 20.708 306.922 20.5 306.674C20.292 306.422 19.974 306.296 19.546 306.296C19.198 306.296 18.922 306.372 18.718 306.524C18.514 306.672 18.368 306.88 18.28 307.148C18.192 307.416 18.148 307.728 18.148 308.084H16.558C16.558 307.464 16.672 306.926 16.9 306.47C17.128 306.01 17.466 305.654 17.914 305.402C18.362 305.15 18.912 305.024 19.564 305.024C20.192 305.024 20.716 305.142 21.136 305.378C21.556 305.61 21.87 305.93 22.078 306.338C22.29 306.742 22.396 307.2 22.396 307.712C22.396 308.06 22.33 308.388 22.198 308.696C22.07 309 21.902 309.284 21.694 309.548C21.486 309.812 21.264 310.054 21.028 310.274C20.792 310.494 20.566 310.694 20.35 310.874C19.998 311.162 19.684 311.428 19.408 311.672C19.136 311.912 18.914 312.122 18.742 312.302C18.574 312.482 18.47 312.63 18.43 312.746H22.384V314H16.612ZM26.687 314.132C26.151 314.132 25.693 314.012 25.313 313.772C24.937 313.532 24.631 313.202 24.395 312.782C24.163 312.362 23.993 311.88 23.885 311.336C23.777 310.788 23.723 310.208 23.723 309.596C23.723 308.984 23.777 308.404 23.885 307.856C23.993 307.304 24.163 306.816 24.395 306.392C24.631 305.968 24.937 305.634 25.313 305.39C25.693 305.146 26.151 305.024 26.687 305.024C27.223 305.024 27.679 305.146 28.055 305.39C28.435 305.634 28.741 305.968 28.973 306.392C29.205 306.816 29.375 307.304 29.483 307.856C29.595 308.404 29.651 308.984 29.651 309.596C29.651 310.208 29.595 310.788 29.483 311.336C29.375 311.88 29.205 312.362 28.973 312.782C28.741 313.202 28.435 313.532 28.055 313.772C27.679 314.012 27.223 314.132 26.687 314.132ZM26.687 312.872C26.991 312.872 27.243 312.758 27.443 312.53C27.643 312.298 27.795 311.94 27.899 311.456C28.003 310.972 28.055 310.352 28.055 309.596C28.055 308.836 28.003 308.214 27.899 307.73C27.795 307.246 27.643 306.89 27.443 306.662C27.243 306.43 26.991 306.314 26.687 306.314C26.387 306.314 26.135 306.43 25.931 306.662C25.727 306.89 25.573 307.246 25.469 307.73C25.365 308.214 25.313 308.836 25.313 309.596C25.313 310.356 25.365 310.978 25.469 311.462C25.573 311.942 25.727 312.298 25.931 312.53C26.135 312.758 26.387 312.872 26.687 312.872ZM33.7417 314.132C33.2057 314.132 32.7477 314.012 32.3677 313.772C31.9917 313.532 31.6857 313.202 31.4497 312.782C31.2177 312.362 31.0477 311.88 30.9397 311.336C30.8317 310.788 30.7777 310.208 30.7777 309.596C30.7777 308.984 30.8317 308.404 30.9397 307.856C31.0477 307.304 31.2177 306.816 31.4497 306.392C31.6857 305.968 31.9917 305.634 32.3677 305.39C32.7477 305.146 33.2057 305.024 33.7417 305.024C34.2777 305.024 34.7337 305.146 35.1097 305.39C35.4897 305.634 35.7957 305.968 36.0277 306.392C36.2597 306.816 36.4297 307.304 36.5377 307.856C36.6497 308.404 36.7057 308.984 36.7057 309.596C36.7057 310.208 36.6497 310.788 36.5377 311.336C36.4297 311.88 36.2597 312.362 36.0277 312.782C35.7957 313.202 35.4897 313.532 35.1097 313.772C34.7337 314.012 34.2777 314.132 33.7417 314.132ZM33.7417 312.872C34.0457 312.872 34.2977 312.758 34.4977 312.53C34.6977 312.298 34.8497 311.94 34.9537 311.456C35.0577 310.972 35.1097 310.352 35.1097 309.596C35.1097 308.836 35.0577 308.214 34.9537 307.73C34.8497 307.246 34.6977 306.89 34.4977 306.662C34.2977 306.43 34.0457 306.314 33.7417 306.314C33.4417 306.314 33.1897 306.43 32.9857 306.662C32.7817 306.89 32.6277 307.246 32.5237 307.73C32.4197 308.214 32.3677 308.836 32.3677 309.596C32.3677 310.356 32.4197 310.978 32.5237 311.462C32.6277 311.942 32.7817 312.298 32.9857 312.53C33.1897 312.758 33.4417 312.872 33.7417 312.872Z" fill="#525252"/>
<path d="M19.954 355.132V364H18.382V356.662C18.342 356.702 18.236 356.756 18.064 356.824C17.896 356.888 17.692 356.95 17.452 357.01C17.216 357.066 16.97 357.106 16.714 357.13V355.846C16.97 355.814 17.216 355.758 17.452 355.678C17.692 355.598 17.898 355.51 18.07 355.414C18.242 355.314 18.358 355.22 18.418 355.132H19.954ZM24.7534 364.132C24.2174 364.132 23.7594 364.012 23.3794 363.772C23.0034 363.532 22.6974 363.202 22.4614 362.782C22.2294 362.362 22.0594 361.88 21.9514 361.336C21.8434 360.788 21.7894 360.208 21.7894 359.596C21.7894 358.984 21.8434 358.404 21.9514 357.856C22.0594 357.304 22.2294 356.816 22.4614 356.392C22.6974 355.968 23.0034 355.634 23.3794 355.39C23.7594 355.146 24.2174 355.024 24.7534 355.024C25.2894 355.024 25.7454 355.146 26.1214 355.39C26.5014 355.634 26.8074 355.968 27.0394 356.392C27.2714 356.816 27.4414 357.304 27.5494 357.856C27.6614 358.404 27.7174 358.984 27.7174 359.596C27.7174 360.208 27.6614 360.788 27.5494 361.336C27.4414 361.88 27.2714 362.362 27.0394 362.782C26.8074 363.202 26.5014 363.532 26.1214 363.772C25.7454 364.012 25.2894 364.132 24.7534 364.132ZM24.7534 362.872C25.0574 362.872 25.3094 362.758 25.5094 362.53C25.7094 362.298 25.8614 361.94 25.9654 361.456C26.0694 360.972 26.1214 360.352 26.1214 359.596C26.1214 358.836 26.0694 358.214 25.9654 357.73C25.8614 357.246 25.7094 356.89 25.5094 356.662C25.3094 356.43 25.0574 356.314 24.7534 356.314C24.4534 356.314 24.2014 356.43 23.9974 356.662C23.7934 356.89 23.6394 357.246 23.5354 357.73C23.4314 358.214 23.3794 358.836 23.3794 359.596C23.3794 360.356 23.4314 360.978 23.5354 361.462C23.6394 361.942 23.7934 362.298 23.9974 362.53C24.2014 362.758 24.4534 362.872 24.7534 362.872ZM31.8081 364.132C31.2721 364.132 30.8141 364.012 30.4341 363.772C30.0581 363.532 29.7521 363.202 29.5161 362.782C29.2841 362.362 29.1141 361.88 29.0061 361.336C28.8981 360.788 28.8441 360.208 28.8441 359.596C28.8441 358.984 28.8981 358.404 29.0061 357.856C29.1141 357.304 29.2841 356.816 29.5161 356.392C29.7521 355.968 30.0581 355.634 30.4341 355.39C30.8141 355.146 31.2721 355.024 31.8081 355.024C32.3441 355.024 32.8001 355.146 33.1761 355.39C33.5561 355.634 33.8621 355.968 34.0941 356.392C34.3261 356.816 34.4961 357.304 34.6041 357.856C34.7161 358.404 34.7721 358.984 34.7721 359.596C34.7721 360.208 34.7161 360.788 34.6041 361.336C34.4961 361.88 34.3261 362.362 34.0941 362.782C33.8621 363.202 33.5561 363.532 33.1761 363.772C32.8001 364.012 32.3441 364.132 31.8081 364.132ZM31.8081 362.872C32.1121 362.872 32.3641 362.758 32.5641 362.53C32.7641 362.298 32.9161 361.94 33.0201 361.456C33.1241 360.972 33.1761 360.352 33.1761 359.596C33.1761 358.836 33.1241 358.214 33.0201 357.73C32.9161 357.246 32.7641 356.89 32.5641 356.662C32.3641 356.43 32.1121 356.314 31.8081 356.314C31.5081 356.314 31.2561 356.43 31.0521 356.662C30.8481 356.89 30.6941 357.246 30.5901 357.73C30.4861 358.214 30.4341 358.836 30.4341 359.596C30.4341 360.356 30.4861 360.978 30.5901 361.462C30.6941 361.942 30.8481 362.298 31.0521 362.53C31.2561 362.758 31.5081 362.872 31.8081 362.872Z" fill="#525252"/>
<path d="M19.48 414.132C18.944 414.132 18.486 414.012 18.106 413.772C17.73 413.532 17.424 413.202 17.188 412.782C16.956 412.362 16.786 411.88 16.678 411.336C16.57 410.788 16.516 410.208 16.516 409.596C16.516 408.984 16.57 408.404 16.678 407.856C16.786 407.304 16.956 406.816 17.188 406.392C17.424 405.968 17.73 405.634 18.106 405.39C18.486 405.146 18.944 405.024 19.48 405.024C20.016 405.024 20.472 405.146 20.848 405.39C21.228 405.634 21.534 405.968 21.766 406.392C21.998 406.816 22.168 407.304 22.276 407.856C22.388 408.404 22.444 408.984 22.444 409.596C22.444 410.208 22.388 410.788 22.276 411.336C22.168 411.88 21.998 412.362 21.766 412.782C21.534 413.202 21.228 413.532 20.848 413.772C20.472 414.012 20.016 414.132 19.48 414.132ZM19.48 412.872C19.784 412.872 20.036 412.758 20.236 412.53C20.436 412.298 20.588 411.94 20.692 411.456C20.796 410.972 20.848 410.352 20.848 409.596C20.848 408.836 20.796 408.214 20.692 407.73C20.588 407.246 20.436 406.89 20.236 406.662C20.036 406.43 19.784 406.314 19.48 406.314C19.18 406.314 18.928 406.43 18.724 406.662C18.52 406.89 18.366 407.246 18.262 407.73C18.158 408.214 18.106 408.836 18.106 409.596C18.106 410.356 18.158 410.978 18.262 411.462C18.366 411.942 18.52 412.298 18.724 412.53C18.928 412.758 19.18 412.872 19.48 412.872Z" fill="#525252"/>
<line x1="66.4978" y1="408.5" x2="1077.5" y2="408.5" stroke="#D6D6D6" stroke-linecap="round" stroke-linejoin="round" stroke-dasharray="3.5 3.5"/>
<line x1="66.4978" y1="358.5" x2="1077.5" y2="358.5" stroke="#D6D6D6" stroke-linecap="round" stroke-linejoin="round" stroke-dasharray="3.5 3.5"/>
<line x1="66.4978" y1="308.5" x2="1077.5" y2="308.5" stroke="#D6D6D6" stroke-linecap="round" stroke-linejoin="round" stroke-dasharray="3.5 3.5"/>
<line x1="66.4978" y1="258.5" x2="1077.5" y2="258.5" stroke="#D6D6D6" stroke-linecap="round" stroke-linejoin="round" stroke-dasharray="3.5 3.5"/>
<line x1="66.4978" y1="208.5" x2="1077.5" y2="208.5" stroke="#D6D6D6" stroke-linecap="round" stroke-linejoin="round" stroke-dasharray="3.5 3.5"/>
<line x1="66.4978" y1="158.5" x2="1077.5" y2="158.5" stroke="#D6D6D6" stroke-linecap="round" stroke-linejoin="round" stroke-dasharray="3.5 3.5"/>
<path d="M196.489 301.957C143.881 288.869 82.2432 166.41 58 177.317V409H1078V194.407C1027.09 201.894 983.841 199.953 975.659 239.05C968.986 270.938 946.584 359.675 901.655 370.33C866.838 378.586 872.131 372.887 836.373 344.05C807.766 320.98 806.955 227 757.598 217.613C735.555 235.342 643.384 235.841 612.335 207.148C568 166.178 509.697 162.431 465.663 207.148C421.63 251.865 377.954 241.203 323.104 265.05C268.253 288.896 262.249 318.317 196.489 301.957Z" fill="url(#paint0_linear_611_9207)"/>
<path d="M58 177.5C82.2432 166.579 143.881 289.015 196.489 302.119C262.249 318.5 268.253 288.009 323.104 264.132C377.954 240.255 421.63 251.964 465.663 207.189C509.697 162.415 568 166.167 612.335 207.189C643.384 235.919 719.766 236.467 751.282 219.716C810.113 210.091 812.503 328.032 841.11 351.132C876.868 380.006 897.588 386.189 933.234 349.49C952.611 329.54 968.986 271.06 975.659 239.132C983.841 199.985 1027.09 201.929 1078 194.432" stroke="#039855" stroke-width="3"/>
<path d="M61.234 445.132C60.55 445.132 59.998 445.008 59.578 444.76C59.162 444.508 58.86 444.16 58.672 443.716C58.484 443.268 58.39 442.746 58.39 442.15C58.39 442.086 58.39 442.022 58.39 441.958C58.39 441.894 58.39 441.83 58.39 441.766H59.956C59.956 441.798 59.956 441.836 59.956 441.88C59.956 441.924 59.956 441.966 59.956 442.006C59.956 442.338 59.994 442.642 60.07 442.918C60.15 443.194 60.282 443.416 60.466 443.584C60.65 443.752 60.906 443.836 61.234 443.836C61.558 443.836 61.81 443.752 61.99 443.584C62.17 443.416 62.296 443.186 62.368 442.894C62.444 442.598 62.482 442.264 62.482 441.892V436.15H64.06V442.108C64.06 442.532 64.012 442.926 63.916 443.29C63.824 443.654 63.67 443.974 63.454 444.25C63.242 444.526 62.954 444.742 62.59 444.898C62.226 445.054 61.774 445.132 61.234 445.132ZM67.808 445.132C67.332 445.132 66.914 445.058 66.554 444.91C66.194 444.758 65.912 444.54 65.708 444.256C65.504 443.972 65.402 443.63 65.402 443.23C65.402 442.794 65.52 442.436 65.756 442.156C65.996 441.872 66.318 441.654 66.722 441.502C67.126 441.346 67.574 441.246 68.066 441.202C68.794 441.13 69.302 441.062 69.59 440.998C69.882 440.93 70.028 440.822 70.028 440.674C70.028 440.67 70.028 440.668 70.028 440.668C70.028 440.664 70.028 440.662 70.028 440.662C70.028 440.382 69.902 440.166 69.65 440.014C69.398 439.862 69.042 439.786 68.582 439.786C68.098 439.786 67.726 439.872 67.466 440.044C67.21 440.212 67.082 440.48 67.082 440.848H65.522C65.522 440.348 65.654 439.926 65.918 439.582C66.186 439.234 66.552 438.97 67.016 438.79C67.48 438.61 68.006 438.52 68.594 438.52C69.142 438.52 69.644 438.602 70.1 438.766C70.556 438.93 70.922 439.178 71.198 439.51C71.474 439.842 71.612 440.256 71.612 440.752C71.612 440.836 71.612 440.92 71.612 441.004C71.612 441.088 71.612 441.172 71.612 441.256V443.656C71.612 443.808 71.616 443.958 71.624 444.106C71.636 444.25 71.658 444.38 71.69 444.496C71.73 444.624 71.778 444.732 71.834 444.82C71.89 444.908 71.934 444.968 71.966 445H70.406C70.378 444.972 70.338 444.918 70.286 444.838C70.238 444.754 70.194 444.658 70.154 444.55C70.114 444.43 70.084 444.302 70.064 444.166C70.044 444.026 70.034 443.872 70.034 443.704L70.346 443.92C70.226 444.164 70.042 444.378 69.794 444.562C69.55 444.742 69.258 444.882 68.918 444.982C68.578 445.082 68.208 445.132 67.808 445.132ZM68.192 443.89C68.52 443.89 68.824 443.834 69.104 443.722C69.384 443.61 69.61 443.438 69.782 443.206C69.954 442.97 70.04 442.668 70.04 442.3V441.448L70.424 441.88C70.168 441.976 69.86 442.056 69.5 442.12C69.14 442.18 68.776 442.228 68.408 442.264C67.936 442.308 67.58 442.39 67.34 442.51C67.104 442.63 66.986 442.826 66.986 443.098C66.986 443.362 67.086 443.56 67.286 443.692C67.486 443.824 67.788 443.89 68.192 443.89ZM77.5832 445V442.174C77.5832 442.014 77.5832 441.874 77.5832 441.754C77.5832 441.63 77.5832 441.518 77.5832 441.418C77.5832 441.13 77.5412 440.872 77.4572 440.644C77.3772 440.412 77.2372 440.23 77.0372 440.098C76.8412 439.966 76.5692 439.9 76.2212 439.9C75.9172 439.9 75.6472 439.974 75.4112 440.122C75.1752 440.266 74.9892 440.466 74.8532 440.722C74.7212 440.974 74.6552 441.266 74.6552 441.598L74.1212 441.268C74.1212 440.736 74.2412 440.264 74.4812 439.852C74.7252 439.436 75.0512 439.11 75.4592 438.874C75.8672 438.638 76.3192 438.52 76.8152 438.52C77.3272 438.52 77.7572 438.62 78.1052 438.82C78.4572 439.02 78.7212 439.304 78.8972 439.672C79.0772 440.04 79.1672 440.472 79.1672 440.968C79.1672 441.16 79.1672 441.376 79.1672 441.616C79.1672 441.856 79.1672 442.092 79.1672 442.324V445H77.5832ZM73.0772 445V438.628H74.6552V445H73.0772Z" fill="#525252"/>
<path d="M149.905 437.41L150.619 436.624V440.458L150.127 440.032H153.739V441.298H150.127L150.619 440.842V445H149.047V436.15H154.273V437.41H149.905ZM155.7 442.324V441.202H160.158L159.978 441.502C159.978 441.478 159.978 441.452 159.978 441.424C159.978 441.392 159.978 441.366 159.978 441.346C159.978 441.07 159.916 440.812 159.792 440.572C159.668 440.328 159.48 440.132 159.228 439.984C158.976 439.832 158.656 439.756 158.268 439.756C157.884 439.756 157.55 439.838 157.266 440.002C156.986 440.162 156.768 440.394 156.612 440.698C156.46 441.002 156.384 441.366 156.384 441.79C156.384 442.226 156.458 442.602 156.606 442.918C156.754 443.23 156.97 443.47 157.254 443.638C157.542 443.802 157.892 443.884 158.304 443.884C158.584 443.884 158.826 443.858 159.03 443.806C159.234 443.754 159.4 443.684 159.528 443.596C159.66 443.504 159.758 443.406 159.822 443.302C159.89 443.198 159.93 443.094 159.942 442.99H161.514C161.49 443.258 161.4 443.52 161.244 443.776C161.092 444.028 160.878 444.258 160.602 444.466C160.326 444.67 159.99 444.834 159.594 444.958C159.202 445.078 158.754 445.138 158.25 445.138C157.566 445.138 156.968 444.998 156.456 444.718C155.944 444.438 155.544 444.048 155.256 443.548C154.972 443.048 154.83 442.476 154.83 441.832C154.83 441.172 154.974 440.594 155.262 440.098C155.554 439.602 155.958 439.216 156.474 438.94C156.99 438.66 157.582 438.52 158.25 438.52C158.938 438.52 159.532 438.66 160.032 438.94C160.536 439.22 160.924 439.61 161.196 440.11C161.468 440.606 161.604 441.184 161.604 441.844C161.604 441.928 161.602 442.018 161.598 442.114C161.594 442.21 161.588 442.28 161.58 442.324H155.7ZM166.493 445.132C165.997 445.132 165.537 445.004 165.113 444.748C164.693 444.488 164.353 444.134 164.093 443.686C163.837 443.238 163.709 442.734 163.709 442.174C163.709 442.158 163.709 442.144 163.709 442.132C163.709 442.116 163.709 442.102 163.709 442.09L164.489 442.072C164.489 442.08 164.489 442.09 164.489 442.102C164.489 442.114 164.489 442.124 164.489 442.132C164.489 442.444 164.567 442.722 164.723 442.966C164.879 443.206 165.081 443.396 165.329 443.536C165.581 443.672 165.849 443.74 166.133 443.74C166.593 443.74 166.985 443.582 167.309 443.266C167.633 442.95 167.795 442.46 167.795 441.796C167.795 441.128 167.633 440.64 167.309 440.332C166.989 440.02 166.597 439.864 166.133 439.864C165.853 439.864 165.587 439.932 165.335 440.068C165.087 440.2 164.883 440.384 164.723 440.62C164.567 440.856 164.489 441.132 164.489 441.448L163.709 441.412C163.709 440.848 163.837 440.348 164.093 439.912C164.353 439.476 164.693 439.136 165.113 438.892C165.537 438.644 165.997 438.52 166.493 438.52C167.009 438.52 167.489 438.648 167.933 438.904C168.381 439.156 168.741 439.526 169.013 440.014C169.289 440.498 169.427 441.092 169.427 441.796C169.427 442.52 169.293 443.13 169.025 443.626C168.757 444.122 168.401 444.498 167.957 444.754C167.513 445.006 167.025 445.132 166.493 445.132ZM162.905 445V435.622H164.489V445H162.905Z" fill="#525252"/>
<path d="M245.595 436.15H248.283V445H246.777V437.158L246.813 437.17L244.911 445H242.799L240.873 437.164L240.909 437.146V445H239.403V436.15H242.091L243.885 444.136H243.783L245.595 436.15ZM252.115 445.132C251.639 445.132 251.221 445.058 250.861 444.91C250.501 444.758 250.219 444.54 250.015 444.256C249.811 443.972 249.709 443.63 249.709 443.23C249.709 442.794 249.827 442.436 250.063 442.156C250.303 441.872 250.625 441.654 251.029 441.502C251.433 441.346 251.881 441.246 252.373 441.202C253.101 441.13 253.609 441.062 253.897 440.998C254.189 440.93 254.335 440.822 254.335 440.674C254.335 440.67 254.335 440.668 254.335 440.668C254.335 440.664 254.335 440.662 254.335 440.662C254.335 440.382 254.209 440.166 253.957 440.014C253.705 439.862 253.349 439.786 252.889 439.786C252.405 439.786 252.033 439.872 251.773 440.044C251.517 440.212 251.389 440.48 251.389 440.848H249.829C249.829 440.348 249.961 439.926 250.225 439.582C250.493 439.234 250.859 438.97 251.323 438.79C251.787 438.61 252.313 438.52 252.901 438.52C253.449 438.52 253.951 438.602 254.407 438.766C254.863 438.93 255.229 439.178 255.505 439.51C255.781 439.842 255.919 440.256 255.919 440.752C255.919 440.836 255.919 440.92 255.919 441.004C255.919 441.088 255.919 441.172 255.919 441.256V443.656C255.919 443.808 255.923 443.958 255.931 444.106C255.943 444.25 255.965 444.38 255.997 444.496C256.037 444.624 256.085 444.732 256.141 444.82C256.197 444.908 256.241 444.968 256.273 445H254.713C254.685 444.972 254.645 444.918 254.593 444.838C254.545 444.754 254.501 444.658 254.461 444.55C254.421 444.43 254.391 444.302 254.371 444.166C254.351 444.026 254.341 443.872 254.341 443.704L254.653 443.92C254.533 444.164 254.349 444.378 254.101 444.562C253.857 444.742 253.565 444.882 253.225 444.982C252.885 445.082 252.515 445.132 252.115 445.132ZM252.499 443.89C252.827 443.89 253.131 443.834 253.411 443.722C253.691 443.61 253.917 443.438 254.089 443.206C254.261 442.97 254.347 442.668 254.347 442.3V441.448L254.731 441.88C254.475 441.976 254.167 442.056 253.807 442.12C253.447 442.18 253.083 442.228 252.715 442.264C252.243 442.308 251.887 442.39 251.647 442.51C251.411 442.63 251.293 442.826 251.293 443.098C251.293 443.362 251.393 443.56 251.593 443.692C251.793 443.824 252.095 443.89 252.499 443.89ZM257.384 445V438.628H258.962V440.746L258.596 440.542C258.636 440.266 258.71 440.006 258.818 439.762C258.926 439.514 259.07 439.298 259.25 439.114C259.43 438.926 259.648 438.78 259.904 438.676C260.16 438.572 260.452 438.52 260.78 438.52C261.04 438.52 261.244 438.54 261.392 438.58C261.544 438.616 261.638 438.646 261.674 438.67L261.386 440.116C261.346 440.088 261.264 440.054 261.14 440.014C261.02 439.97 260.858 439.948 260.654 439.948C260.33 439.948 260.058 440.004 259.838 440.116C259.622 440.224 259.45 440.372 259.322 440.56C259.194 440.744 259.102 440.948 259.046 441.172C258.99 441.392 258.962 441.612 258.962 441.832V445H257.384Z" fill="#525252"/>
<path d="M331.196 445L333.482 436.138H335.978L338.246 445H336.62L334.724 437.116H334.736L332.822 445H331.196ZM332.672 442.846V441.58H336.788V442.846H332.672ZM339.415 447.622V438.628H340.993V447.622H339.415ZM343.003 445.132C342.507 445.132 342.047 445.004 341.623 444.748C341.203 444.488 340.863 444.134 340.603 443.686C340.347 443.238 340.219 442.734 340.219 442.174C340.219 442.158 340.219 442.144 340.219 442.132C340.219 442.116 340.219 442.102 340.219 442.09L340.999 442.072C340.999 442.08 340.999 442.09 340.999 442.102C340.999 442.114 340.999 442.124 340.999 442.132C340.999 442.444 341.077 442.722 341.233 442.966C341.389 443.206 341.591 443.396 341.839 443.536C342.091 443.672 342.359 443.74 342.643 443.74C343.103 443.74 343.495 443.582 343.819 443.266C344.143 442.95 344.305 442.46 344.305 441.796C344.305 441.128 344.143 440.64 343.819 440.332C343.499 440.02 343.107 439.864 342.643 439.864C342.363 439.864 342.097 439.932 341.845 440.068C341.597 440.2 341.393 440.384 341.233 440.62C341.077 440.856 340.999 441.132 340.999 441.448L340.219 441.412C340.219 440.848 340.347 440.348 340.603 439.912C340.863 439.476 341.203 439.136 341.623 438.892C342.047 438.644 342.507 438.52 343.003 438.52C343.519 438.52 343.999 438.646 344.443 438.898C344.891 439.15 345.251 439.52 345.523 440.008C345.799 440.496 345.937 441.092 345.937 441.796C345.937 442.52 345.803 443.13 345.535 443.626C345.267 444.122 344.911 444.498 344.467 444.754C344.023 445.006 343.535 445.132 343.003 445.132ZM347.243 445V438.628H348.821V440.746L348.455 440.542C348.495 440.266 348.569 440.006 348.677 439.762C348.785 439.514 348.929 439.298 349.109 439.114C349.289 438.926 349.507 438.78 349.763 438.676C350.019 438.572 350.311 438.52 350.639 438.52C350.899 438.52 351.103 438.54 351.251 438.58C351.403 438.616 351.497 438.646 351.533 438.67L351.245 440.116C351.205 440.088 351.123 440.054 350.999 440.014C350.879 439.97 350.717 439.948 350.513 439.948C350.189 439.948 349.917 440.004 349.697 440.116C349.481 440.224 349.309 440.372 349.181 440.56C349.053 440.744 348.961 440.948 348.905 441.172C348.849 441.392 348.821 441.612 348.821 441.832V445H347.243Z" fill="#525252"/>
<path d="M427.141 436.15H429.829V445H428.323V437.158L428.359 437.17L426.457 445H424.345L422.419 437.164L422.455 437.146V445H420.949V436.15H423.637L425.431 444.136H425.329L427.141 436.15ZM433.661 445.132C433.185 445.132 432.767 445.058 432.407 444.91C432.047 444.758 431.765 444.54 431.561 444.256C431.357 443.972 431.255 443.63 431.255 443.23C431.255 442.794 431.373 442.436 431.609 442.156C431.849 441.872 432.171 441.654 432.575 441.502C432.979 441.346 433.427 441.246 433.919 441.202C434.647 441.13 435.155 441.062 435.443 440.998C435.735 440.93 435.881 440.822 435.881 440.674C435.881 440.67 435.881 440.668 435.881 440.668C435.881 440.664 435.881 440.662 435.881 440.662C435.881 440.382 435.755 440.166 435.503 440.014C435.251 439.862 434.895 439.786 434.435 439.786C433.951 439.786 433.579 439.872 433.319 440.044C433.063 440.212 432.935 440.48 432.935 440.848H431.375C431.375 440.348 431.507 439.926 431.771 439.582C432.039 439.234 432.405 438.97 432.869 438.79C433.333 438.61 433.859 438.52 434.447 438.52C434.995 438.52 435.497 438.602 435.953 438.766C436.409 438.93 436.775 439.178 437.051 439.51C437.327 439.842 437.465 440.256 437.465 440.752C437.465 440.836 437.465 440.92 437.465 441.004C437.465 441.088 437.465 441.172 437.465 441.256V443.656C437.465 443.808 437.469 443.958 437.477 444.106C437.489 444.25 437.511 444.38 437.543 444.496C437.583 444.624 437.631 444.732 437.687 444.82C437.743 444.908 437.787 444.968 437.819 445H436.259C436.231 444.972 436.191 444.918 436.139 444.838C436.091 444.754 436.047 444.658 436.007 444.55C435.967 444.43 435.937 444.302 435.917 444.166C435.897 444.026 435.887 443.872 435.887 443.704L436.199 443.92C436.079 444.164 435.895 444.378 435.647 444.562C435.403 444.742 435.111 444.882 434.771 444.982C434.431 445.082 434.061 445.132 433.661 445.132ZM434.045 443.89C434.373 443.89 434.677 443.834 434.957 443.722C435.237 443.61 435.463 443.438 435.635 443.206C435.807 442.97 435.893 442.668 435.893 442.3V441.448L436.277 441.88C436.021 441.976 435.713 442.056 435.353 442.12C434.993 442.18 434.629 442.228 434.261 442.264C433.789 442.308 433.433 442.39 433.193 442.51C432.957 442.63 432.839 442.826 432.839 443.098C432.839 443.362 432.939 443.56 433.139 443.692C433.339 443.824 433.641 443.89 434.045 443.89ZM439.133 447.736C438.945 447.736 438.777 447.726 438.629 447.706C438.481 447.69 438.389 447.674 438.353 447.658V446.428C438.405 446.452 438.493 446.47 438.617 446.482C438.745 446.498 438.877 446.506 439.013 446.506C439.233 446.506 439.423 446.462 439.583 446.374C439.747 446.286 439.887 446.164 440.003 446.008C440.119 445.856 440.211 445.678 440.279 445.474L440.417 445.072L438.221 438.628H439.871L441.377 443.944H441.185L442.655 438.628H444.275L442.043 445.39C441.887 445.858 441.697 446.268 441.473 446.62C441.253 446.972 440.959 447.246 440.591 447.442C440.223 447.638 439.737 447.736 439.133 447.736Z" fill="#525252"/>
<path d="M516.598 445.132C515.914 445.132 515.362 445.008 514.942 444.76C514.526 444.508 514.224 444.16 514.036 443.716C513.848 443.268 513.754 442.746 513.754 442.15C513.754 442.086 513.754 442.022 513.754 441.958C513.754 441.894 513.754 441.83 513.754 441.766H515.32C515.32 441.798 515.32 441.836 515.32 441.88C515.32 441.924 515.32 441.966 515.32 442.006C515.32 442.338 515.358 442.642 515.434 442.918C515.514 443.194 515.646 443.416 515.83 443.584C516.014 443.752 516.27 443.836 516.598 443.836C516.922 443.836 517.174 443.752 517.354 443.584C517.534 443.416 517.66 443.186 517.732 442.894C517.808 442.598 517.846 442.264 517.846 441.892V436.15H519.424V442.108C519.424 442.532 519.376 442.926 519.28 443.29C519.188 443.654 519.034 443.974 518.818 444.25C518.606 444.526 518.318 444.742 517.954 444.898C517.59 445.054 517.138 445.132 516.598 445.132ZM523.28 445.12C522.828 445.12 522.452 445.044 522.152 444.892C521.856 444.74 521.622 444.54 521.45 444.292C521.282 444.044 521.162 443.77 521.09 443.47C521.022 443.17 520.988 442.87 520.988 442.57C520.988 442.422 520.988 442.268 520.988 442.108C520.988 441.948 520.988 441.786 520.988 441.622V438.628H522.572V441.376C522.572 441.52 522.572 441.658 522.572 441.79C522.572 441.922 522.572 442.046 522.572 442.162C522.572 442.446 522.606 442.71 522.674 442.954C522.742 443.194 522.866 443.388 523.046 443.536C523.23 443.684 523.488 443.758 523.82 443.758C524.136 443.758 524.408 443.666 524.636 443.482C524.864 443.294 525.04 443.058 525.164 442.774C525.292 442.49 525.356 442.202 525.356 441.91L525.896 442.27C525.896 442.658 525.836 443.024 525.716 443.368C525.596 443.708 525.422 444.01 525.194 444.274C524.966 444.538 524.69 444.746 524.366 444.898C524.046 445.046 523.684 445.12 523.28 445.12ZM525.356 445V438.628H526.934V445H525.356ZM532.959 445V442.174C532.959 442.014 532.959 441.874 532.959 441.754C532.959 441.63 532.959 441.518 532.959 441.418C532.959 441.13 532.917 440.872 532.833 440.644C532.753 440.412 532.613 440.23 532.413 440.098C532.217 439.966 531.945 439.9 531.597 439.9C531.293 439.9 531.023 439.974 530.787 440.122C530.551 440.266 530.365 440.466 530.229 440.722C530.097 440.974 530.031 441.266 530.031 441.598L529.497 441.268C529.497 440.736 529.617 440.264 529.857 439.852C530.101 439.436 530.427 439.11 530.835 438.874C531.243 438.638 531.695 438.52 532.191 438.52C532.703 438.52 533.133 438.62 533.481 438.82C533.833 439.02 534.097 439.304 534.273 439.672C534.453 440.04 534.543 440.472 534.543 440.968C534.543 441.16 534.543 441.376 534.543 441.616C534.543 441.856 534.543 442.092 534.543 442.324V445H532.959ZM528.453 445V438.628H530.031V445H528.453Z" fill="#525252"/>
<path d="M606.87 445.132C606.186 445.132 605.634 445.008 605.214 444.76C604.798 444.508 604.496 444.16 604.308 443.716C604.12 443.268 604.026 442.746 604.026 442.15C604.026 442.086 604.026 442.022 604.026 441.958C604.026 441.894 604.026 441.83 604.026 441.766H605.592C605.592 441.798 605.592 441.836 605.592 441.88C605.592 441.924 605.592 441.966 605.592 442.006C605.592 442.338 605.63 442.642 605.706 442.918C605.786 443.194 605.918 443.416 606.102 443.584C606.286 443.752 606.542 443.836 606.87 443.836C607.194 443.836 607.446 443.752 607.626 443.584C607.806 443.416 607.932 443.186 608.004 442.894C608.08 442.598 608.118 442.264 608.118 441.892V436.15H609.696V442.108C609.696 442.532 609.648 442.926 609.552 443.29C609.46 443.654 609.306 443.974 609.09 444.25C608.878 444.526 608.59 444.742 608.226 444.898C607.862 445.054 607.41 445.132 606.87 445.132ZM613.552 445.12C613.1 445.12 612.724 445.044 612.424 444.892C612.128 444.74 611.894 444.54 611.722 444.292C611.554 444.044 611.434 443.77 611.362 443.47C611.294 443.17 611.26 442.87 611.26 442.57C611.26 442.422 611.26 442.268 611.26 442.108C611.26 441.948 611.26 441.786 611.26 441.622V438.628H612.844V441.376C612.844 441.52 612.844 441.658 612.844 441.79C612.844 441.922 612.844 442.046 612.844 442.162C612.844 442.446 612.878 442.71 612.946 442.954C613.014 443.194 613.138 443.388 613.318 443.536C613.502 443.684 613.76 443.758 614.092 443.758C614.408 443.758 614.68 443.666 614.908 443.482C615.136 443.294 615.312 443.058 615.436 442.774C615.564 442.49 615.628 442.202 615.628 441.91L616.168 442.27C616.168 442.658 616.108 443.024 615.988 443.368C615.868 443.708 615.694 444.01 615.466 444.274C615.238 444.538 614.962 444.746 614.638 444.898C614.318 445.046 613.956 445.12 613.552 445.12ZM615.628 445V438.628H617.206V445H615.628ZM620.369 435.622V445H618.815V435.622H620.369Z" fill="#525252"/>
<path d="M690.287 445L692.573 436.138H695.069L697.337 445H695.711L693.815 437.116H693.827L691.913 445H690.287ZM691.763 442.846V441.58H695.879V442.846H691.763ZM700.798 445.12C700.346 445.12 699.97 445.044 699.67 444.892C699.374 444.74 699.14 444.54 698.968 444.292C698.8 444.044 698.68 443.77 698.608 443.47C698.54 443.17 698.506 442.87 698.506 442.57C698.506 442.422 698.506 442.268 698.506 442.108C698.506 441.948 698.506 441.786 698.506 441.622V438.628H700.09V441.376C700.09 441.52 700.09 441.658 700.09 441.79C700.09 441.922 700.09 442.046 700.09 442.162C700.09 442.446 700.124 442.71 700.192 442.954C700.26 443.194 700.384 443.388 700.564 443.536C700.748 443.684 701.006 443.758 701.338 443.758C701.654 443.758 701.926 443.666 702.154 443.482C702.382 443.294 702.558 443.058 702.682 442.774C702.81 442.49 702.874 442.202 702.874 441.91L703.414 442.27C703.414 442.658 703.354 443.024 703.234 443.368C703.114 443.708 702.94 444.01 702.712 444.274C702.484 444.538 702.208 444.746 701.884 444.898C701.564 445.046 701.202 445.12 700.798 445.12ZM702.874 445V438.628H704.452V445H702.874ZM710.255 444.37C710.631 444.406 710.961 444.476 711.245 444.58C711.529 444.684 711.751 444.838 711.911 445.042C712.071 445.25 712.151 445.526 712.151 445.87C712.151 446.254 712.021 446.586 711.761 446.866C711.501 447.146 711.119 447.362 710.615 447.514C710.115 447.666 709.499 447.742 708.767 447.742C707.703 447.742 706.885 447.588 706.313 447.28C705.741 446.976 705.455 446.562 705.455 446.038C705.455 445.89 705.473 445.756 705.509 445.636C705.545 445.516 705.589 445.416 705.641 445.336L707.087 445.546C707.063 445.578 707.039 445.628 707.015 445.696C706.991 445.768 706.979 445.854 706.979 445.954C706.979 446.202 707.145 446.38 707.477 446.488C707.813 446.6 708.259 446.656 708.815 446.656C709.223 446.656 709.563 446.628 709.835 446.572C710.111 446.516 710.319 446.436 710.459 446.332C710.603 446.228 710.675 446.106 710.675 445.966C710.675 445.758 710.581 445.624 710.393 445.564C710.205 445.504 709.981 445.464 709.721 445.444L707.303 445.222C706.871 445.178 706.515 445.05 706.235 444.838C705.959 444.626 705.821 444.346 705.821 443.998C705.821 443.786 705.877 443.59 705.989 443.41C706.105 443.23 706.237 443.08 706.385 442.96C706.533 442.836 706.659 442.76 706.763 442.732L707.663 443.176C707.579 443.188 707.479 443.242 707.363 443.338C707.251 443.434 707.195 443.548 707.195 443.68C707.195 443.804 707.251 443.908 707.363 443.992C707.475 444.072 707.691 444.128 708.011 444.16L710.255 444.37ZM710.969 438.628H712.385L711.809 441.1C711.701 441.564 711.527 441.98 711.287 442.348C711.047 442.716 710.727 443.006 710.327 443.218C709.927 443.43 709.423 443.536 708.815 443.536C708.183 443.536 707.637 443.434 707.177 443.23C706.721 443.022 706.369 442.732 706.121 442.36C705.873 441.984 705.749 441.552 705.749 441.064C705.749 440.564 705.875 440.124 706.127 439.744C706.383 439.36 706.733 439.06 707.177 438.844C707.625 438.628 708.131 438.52 708.695 438.52C709.151 438.52 709.561 438.596 709.925 438.748C710.289 438.896 710.579 439.09 710.795 439.33C711.015 439.57 711.133 439.826 711.149 440.098L710.795 440.164L710.969 438.628ZM708.809 442.318C709.117 442.318 709.383 442.268 709.607 442.168C709.831 442.068 710.005 441.924 710.129 441.736C710.253 441.544 710.315 441.312 710.315 441.04C710.315 440.772 710.253 440.542 710.129 440.35C710.005 440.158 709.831 440.012 709.607 439.912C709.383 439.808 709.119 439.756 708.815 439.756C708.519 439.756 708.257 439.808 708.029 439.912C707.801 440.016 707.621 440.166 707.489 440.362C707.361 440.554 707.297 440.784 707.297 441.052C707.297 441.32 707.359 441.55 707.483 441.742C707.611 441.93 707.787 442.074 708.011 442.174C708.239 442.27 708.505 442.318 708.809 442.318Z" fill="#525252"/>
<path d="M784.842 445.132C784.214 445.132 783.666 445.032 783.198 444.832C782.73 444.632 782.366 444.332 782.106 443.932C781.846 443.528 781.716 443.028 781.716 442.432C781.716 442.364 781.716 442.304 781.716 442.252C781.716 442.196 781.716 442.134 781.716 442.066H783.294C783.294 442.126 783.294 442.182 783.294 442.234C783.294 442.282 783.294 442.338 783.294 442.402C783.294 442.882 783.424 443.242 783.684 443.482C783.948 443.718 784.336 443.836 784.848 443.836C785.364 443.836 785.758 443.75 786.03 443.578C786.306 443.406 786.444 443.13 786.444 442.75C786.444 442.474 786.35 442.24 786.162 442.048C785.978 441.852 785.724 441.68 785.4 441.532C785.076 441.384 784.708 441.246 784.296 441.118C783.832 440.974 783.41 440.788 783.03 440.56C782.65 440.332 782.346 440.044 782.118 439.696C781.89 439.348 781.776 438.92 781.776 438.412C781.776 437.904 781.906 437.472 782.166 437.116C782.43 436.76 782.79 436.49 783.246 436.306C783.706 436.118 784.228 436.024 784.812 436.024C785.424 436.024 785.962 436.12 786.426 436.312C786.894 436.504 787.26 436.79 787.524 437.17C787.788 437.55 787.92 438.024 787.92 438.592C787.92 438.668 787.92 438.734 787.92 438.79C787.92 438.846 787.92 438.91 787.92 438.982H786.336C786.336 438.93 786.336 438.878 786.336 438.826C786.336 438.77 786.336 438.716 786.336 438.664C786.336 438.208 786.212 437.872 785.964 437.656C785.716 437.436 785.34 437.326 784.836 437.326C784.344 437.326 783.966 437.412 783.702 437.584C783.438 437.756 783.306 438.03 783.306 438.406C783.306 438.686 783.396 438.92 783.576 439.108C783.756 439.296 784.002 439.46 784.314 439.6C784.63 439.736 784.988 439.874 785.388 440.014C785.92 440.19 786.38 440.39 786.768 440.614C787.156 440.834 787.456 441.11 787.668 441.442C787.88 441.77 787.986 442.188 787.986 442.696C787.986 443.216 787.854 443.658 787.59 444.022C787.33 444.382 786.964 444.658 786.492 444.85C786.024 445.038 785.474 445.132 784.842 445.132ZM789.898 442.324V441.202H794.356L794.176 441.502C794.176 441.478 794.176 441.452 794.176 441.424C794.176 441.392 794.176 441.366 794.176 441.346C794.176 441.07 794.114 440.812 793.99 440.572C793.866 440.328 793.678 440.132 793.426 439.984C793.174 439.832 792.854 439.756 792.466 439.756C792.082 439.756 791.748 439.838 791.464 440.002C791.184 440.162 790.966 440.394 790.81 440.698C790.658 441.002 790.582 441.366 790.582 441.79C790.582 442.226 790.656 442.602 790.804 442.918C790.952 443.23 791.168 443.47 791.452 443.638C791.74 443.802 792.09 443.884 792.502 443.884C792.782 443.884 793.024 443.858 793.228 443.806C793.432 443.754 793.598 443.684 793.726 443.596C793.858 443.504 793.956 443.406 794.02 443.302C794.088 443.198 794.128 443.094 794.14 442.99H795.712C795.688 443.258 795.598 443.52 795.442 443.776C795.29 444.028 795.076 444.258 794.8 444.466C794.524 444.67 794.188 444.834 793.792 444.958C793.4 445.078 792.952 445.138 792.448 445.138C791.764 445.138 791.166 444.998 790.654 444.718C790.142 444.438 789.742 444.048 789.454 443.548C789.17 443.048 789.028 442.476 789.028 441.832C789.028 441.172 789.172 440.594 789.46 440.098C789.752 439.602 790.156 439.216 790.672 438.94C791.188 438.66 791.78 438.52 792.448 438.52C793.136 438.52 793.73 438.66 794.23 438.94C794.734 439.22 795.122 439.61 795.394 440.11C795.666 440.606 795.802 441.184 795.802 441.844C795.802 441.928 795.8 442.018 795.796 442.114C795.792 442.21 795.786 442.28 795.778 442.324H789.898ZM797.103 447.622V438.628H798.681V447.622H797.103ZM800.691 445.132C800.195 445.132 799.735 445.004 799.311 444.748C798.891 444.488 798.551 444.134 798.291 443.686C798.035 443.238 797.907 442.734 797.907 442.174C797.907 442.158 797.907 442.144 797.907 442.132C797.907 442.116 797.907 442.102 797.907 442.09L798.687 442.072C798.687 442.08 798.687 442.09 798.687 442.102C798.687 442.114 798.687 442.124 798.687 442.132C798.687 442.444 798.765 442.722 798.921 442.966C799.077 443.206 799.279 443.396 799.527 443.536C799.779 443.672 800.047 443.74 800.331 443.74C800.791 443.74 801.183 443.582 801.507 443.266C801.831 442.95 801.993 442.46 801.993 441.796C801.993 441.128 801.831 440.64 801.507 440.332C801.187 440.02 800.795 439.864 800.331 439.864C800.051 439.864 799.785 439.932 799.533 440.068C799.285 440.2 799.081 440.384 798.921 440.62C798.765 440.856 798.687 441.132 798.687 441.448L797.907 441.412C797.907 440.848 798.035 440.348 798.291 439.912C798.551 439.476 798.891 439.136 799.311 438.892C799.735 438.644 800.195 438.52 800.691 438.52C801.207 438.52 801.687 438.646 802.131 438.898C802.579 439.15 802.939 439.52 803.211 440.008C803.487 440.496 803.625 441.092 803.625 441.796C803.625 442.52 803.491 443.13 803.223 443.626C802.955 444.122 802.599 444.498 802.155 444.754C801.711 445.006 801.223 445.132 800.691 445.132Z" fill="#525252"/>
<path d="M876.817 445.132C876.281 445.132 875.781 445.032 875.317 444.832C874.853 444.632 874.445 444.338 874.093 443.95C873.745 443.558 873.473 443.08 873.277 442.516C873.085 441.948 872.989 441.298 872.989 440.566C872.989 439.834 873.085 439.186 873.277 438.622C873.473 438.058 873.745 437.584 874.093 437.2C874.441 436.812 874.847 436.52 875.311 436.324C875.779 436.124 876.281 436.024 876.817 436.024C877.361 436.024 877.865 436.124 878.329 436.324C878.797 436.52 879.205 436.812 879.553 437.2C879.901 437.584 880.171 438.058 880.363 438.622C880.559 439.186 880.657 439.834 880.657 440.566C880.657 441.298 880.559 441.948 880.363 442.516C880.167 443.08 879.893 443.558 879.541 443.95C879.193 444.338 878.787 444.632 878.323 444.832C877.859 445.032 877.357 445.132 876.817 445.132ZM876.817 443.83C877.233 443.83 877.609 443.718 877.945 443.494C878.281 443.266 878.547 442.912 878.743 442.432C878.943 441.952 879.043 441.33 879.043 440.566C879.043 439.798 878.943 439.178 878.743 438.706C878.543 438.23 878.275 437.882 877.939 437.662C877.603 437.442 877.229 437.332 876.817 437.332C876.413 437.332 876.041 437.442 875.701 437.662C875.365 437.882 875.095 438.23 874.891 438.706C874.691 439.178 874.591 439.798 874.591 440.566C874.591 441.334 874.691 441.958 874.891 442.438C875.095 442.918 875.365 443.27 875.701 443.494C876.041 443.718 876.413 443.83 876.817 443.83ZM885.127 445.132C884.455 445.132 883.861 444.994 883.345 444.718C882.829 444.442 882.425 444.054 882.133 443.554C881.841 443.054 881.695 442.468 881.695 441.796C881.695 441.128 881.841 440.548 882.133 440.056C882.425 439.564 882.829 439.186 883.345 438.922C883.861 438.654 884.455 438.52 885.127 438.52C885.631 438.52 886.077 438.594 886.465 438.742C886.853 438.89 887.179 439.088 887.443 439.336C887.711 439.58 887.915 439.85 888.055 440.146C888.195 440.438 888.265 440.73 888.265 441.022C888.265 441.03 888.265 441.038 888.265 441.046C888.265 441.054 888.265 441.062 888.265 441.07H886.699C886.699 441.05 886.697 441.028 886.693 441.004C886.689 440.98 886.685 440.956 886.681 440.932C886.649 440.728 886.567 440.544 886.435 440.38C886.303 440.212 886.127 440.078 885.907 439.978C885.687 439.878 885.421 439.828 885.109 439.828C884.777 439.828 884.473 439.902 884.197 440.05C883.925 440.194 883.707 440.412 883.543 440.704C883.383 440.996 883.303 441.36 883.303 441.796C883.303 442.228 883.383 442.596 883.543 442.9C883.703 443.2 883.919 443.43 884.191 443.59C884.467 443.746 884.773 443.824 885.109 443.824C885.465 443.824 885.755 443.77 885.979 443.662C886.207 443.55 886.379 443.402 886.495 443.218C886.611 443.03 886.677 442.826 886.693 442.606H888.265C888.265 442.902 888.197 443.2 888.061 443.5C887.925 443.796 887.725 444.068 887.461 444.316C887.197 444.564 886.869 444.762 886.477 444.91C886.089 445.058 885.639 445.132 885.127 445.132ZM892.428 445.12C892.2 445.12 891.968 445.098 891.732 445.054C891.496 445.01 891.28 444.928 891.084 444.808C890.888 444.688 890.73 444.512 890.61 444.28C890.49 444.048 890.43 443.742 890.43 443.362C890.43 443.274 890.43 443.186 890.43 443.098C890.43 443.006 890.43 442.912 890.43 442.816V439.888H888.924V438.628H889.536C889.744 438.628 889.908 438.62 890.028 438.604C890.148 438.584 890.236 438.54 890.292 438.472C890.348 438.404 890.384 438.298 890.4 438.154C890.42 438.006 890.43 437.802 890.43 437.542V436.528H892.014V438.628H893.91V439.888H892.014V442.444C892.014 442.52 892.014 442.596 892.014 442.672C892.014 442.744 892.014 442.814 892.014 442.882C892.014 443.178 892.05 443.416 892.122 443.596C892.194 443.776 892.364 443.866 892.632 443.866C892.76 443.866 892.88 443.854 892.992 443.83C893.108 443.806 893.194 443.782 893.25 443.758V444.994C893.174 445.022 893.064 445.05 892.92 445.078C892.776 445.106 892.612 445.12 892.428 445.12Z" fill="#525252"/>
<path d="M965.037 445H963.501V436.15H965.979L969.213 444.358L968.979 444.424V436.15H970.521V445H968.007L964.785 436.81L965.037 436.75V445ZM975.217 445.126C974.545 445.126 973.953 444.986 973.441 444.706C972.929 444.422 972.527 444.03 972.235 443.53C971.947 443.03 971.803 442.458 971.803 441.814C971.803 441.166 971.947 440.596 972.235 440.104C972.527 439.608 972.929 439.22 973.441 438.94C973.953 438.66 974.545 438.52 975.217 438.52C975.889 438.52 976.481 438.66 976.993 438.94C977.505 439.22 977.905 439.608 978.193 440.104C978.485 440.596 978.631 441.166 978.631 441.814C978.631 442.458 978.485 443.03 978.193 443.53C977.905 444.03 977.505 444.422 976.993 444.706C976.481 444.986 975.889 445.126 975.217 445.126ZM975.217 443.836C975.581 443.836 975.899 443.752 976.171 443.584C976.443 443.416 976.655 443.182 976.807 442.882C976.959 442.578 977.035 442.222 977.035 441.814C977.035 441.406 976.959 441.054 976.807 440.758C976.655 440.458 976.443 440.226 976.171 440.062C975.899 439.898 975.581 439.816 975.217 439.816C974.857 439.816 974.539 439.898 974.263 440.062C973.991 440.226 973.779 440.458 973.627 440.758C973.475 441.054 973.399 441.406 973.399 441.814C973.399 442.222 973.475 442.578 973.627 442.882C973.779 443.182 973.991 443.416 974.263 443.584C974.539 443.752 974.857 443.836 975.217 443.836ZM985.318 438.628L983.32 445H981.202L979.156 438.628H980.788L982.39 444.448H982.138L983.686 438.628H985.318Z" fill="#525252"/>
<path d="M1054.77 445V436.15H1057.42C1058.01 436.15 1058.54 436.256 1059.02 436.468C1059.5 436.676 1059.91 436.974 1060.26 437.362C1060.6 437.75 1060.87 438.216 1061.06 438.76C1061.24 439.3 1061.34 439.902 1061.34 440.566C1061.34 441.23 1061.24 441.834 1061.06 442.378C1060.87 442.918 1060.6 443.384 1060.26 443.776C1059.91 444.168 1059.5 444.47 1059.02 444.682C1058.54 444.894 1058.01 445 1057.42 445H1054.77ZM1056.36 444.526L1055.64 443.74H1057.22C1057.7 443.74 1058.12 443.612 1058.5 443.356C1058.88 443.096 1059.18 442.73 1059.4 442.258C1059.62 441.782 1059.73 441.218 1059.73 440.566C1059.73 439.91 1059.62 439.346 1059.4 438.874C1059.18 438.402 1058.88 438.04 1058.5 437.788C1058.12 437.536 1057.7 437.41 1057.22 437.41H1055.64L1056.36 436.624V444.526ZM1063.24 442.324V441.202H1067.7L1067.52 441.502C1067.52 441.478 1067.52 441.452 1067.52 441.424C1067.52 441.392 1067.52 441.366 1067.52 441.346C1067.52 441.07 1067.46 440.812 1067.34 440.572C1067.21 440.328 1067.02 440.132 1066.77 439.984C1066.52 439.832 1066.2 439.756 1065.81 439.756C1065.43 439.756 1065.09 439.838 1064.81 440.002C1064.53 440.162 1064.31 440.394 1064.16 440.698C1064 441.002 1063.93 441.366 1063.93 441.79C1063.93 442.226 1064 442.602 1064.15 442.918C1064.3 443.23 1064.51 443.47 1064.8 443.638C1065.09 443.802 1065.44 443.884 1065.85 443.884C1066.13 443.884 1066.37 443.858 1066.57 443.806C1066.78 443.754 1066.94 443.684 1067.07 443.596C1067.2 443.504 1067.3 443.406 1067.37 443.302C1067.43 443.198 1067.47 443.094 1067.49 442.99H1069.06C1069.03 443.258 1068.94 443.52 1068.79 443.776C1068.64 444.028 1068.42 444.258 1068.15 444.466C1067.87 444.67 1067.53 444.834 1067.14 444.958C1066.75 445.078 1066.3 445.138 1065.79 445.138C1065.11 445.138 1064.51 444.998 1064 444.718C1063.49 444.438 1063.09 444.048 1062.8 443.548C1062.52 443.048 1062.37 442.476 1062.37 441.832C1062.37 441.172 1062.52 440.594 1062.81 440.098C1063.1 439.602 1063.5 439.216 1064.02 438.94C1064.53 438.66 1065.13 438.52 1065.79 438.52C1066.48 438.52 1067.08 438.66 1067.58 438.94C1068.08 439.22 1068.47 439.61 1068.74 440.11C1069.01 440.606 1069.15 441.184 1069.15 441.844C1069.15 441.928 1069.15 442.018 1069.14 442.114C1069.14 442.21 1069.13 442.28 1069.12 442.324H1063.24ZM1073.6 445.132C1072.93 445.132 1072.33 444.994 1071.82 444.718C1071.3 444.442 1070.9 444.054 1070.6 443.554C1070.31 443.054 1070.17 442.468 1070.17 441.796C1070.17 441.128 1070.31 440.548 1070.6 440.056C1070.9 439.564 1071.3 439.186 1071.82 438.922C1072.33 438.654 1072.93 438.52 1073.6 438.52C1074.1 438.52 1074.55 438.594 1074.94 438.742C1075.32 438.89 1075.65 439.088 1075.91 439.336C1076.18 439.58 1076.39 439.85 1076.53 440.146C1076.67 440.438 1076.74 440.73 1076.74 441.022C1076.74 441.03 1076.74 441.038 1076.74 441.046C1076.74 441.054 1076.74 441.062 1076.74 441.07H1075.17C1075.17 441.05 1075.17 441.028 1075.16 441.004C1075.16 440.98 1075.16 440.956 1075.15 440.932C1075.12 440.728 1075.04 440.544 1074.91 440.38C1074.77 440.212 1074.6 440.078 1074.38 439.978C1074.16 439.878 1073.89 439.828 1073.58 439.828C1073.25 439.828 1072.94 439.902 1072.67 440.05C1072.4 440.194 1072.18 440.412 1072.01 440.704C1071.85 440.996 1071.77 441.36 1071.77 441.796C1071.77 442.228 1071.85 442.596 1072.01 442.9C1072.17 443.2 1072.39 443.43 1072.66 443.59C1072.94 443.746 1073.24 443.824 1073.58 443.824C1073.94 443.824 1074.23 443.77 1074.45 443.662C1074.68 443.55 1074.85 443.402 1074.97 443.218C1075.08 443.03 1075.15 442.826 1075.16 442.606H1076.74C1076.74 442.902 1076.67 443.2 1076.53 443.5C1076.4 443.796 1076.2 444.068 1075.93 444.316C1075.67 444.564 1075.34 444.762 1074.95 444.91C1074.56 445.058 1074.11 445.132 1073.6 445.132Z" fill="#525252"/>
<path d="M333.989 305.817C291.384 257.873 242.169 179.977 207.578 195.063L58 248.33V409.013H1074.79C1074.79 380.773 1054.95 341 1052.35 312.879C1046.71 251.785 1054.17 149.684 972.775 177.063C916.038 196.148 948.791 342.688 904.003 353.343C893.108 355.935 875.606 346.313 855.615 330.688C773.694 266.661 667.803 237.913 574.122 283.017L472.209 312.971L470.869 313.365C422.127 327.696 367.662 343.709 333.989 305.817Z" fill="url(#paint1_linear_611_9207)"/>
<path d="M58 247.475C82.167 236.555 149.42 212.66 209.288 195.094C264.334 178.944 339.95 349.67 403.879 331.107C458.556 315.23 600.947 267.605 669.677 262.48C738.408 257.354 833.819 318.564 890.015 350.465C951.058 385.118 908.578 165.357 996.243 171.107V171.107C1019.28 171.625 1038.67 188.507 1042.36 211.256L1047.5 243L1049.34 280.398C1050.44 302.729 1054.04 324.868 1060.06 346.401L1077 407" stroke="#DC6803" stroke-width="3"/>
<path d="M58 356L180.516 375.393C222.522 382.042 265.493 378.947 306.112 366.348V366.348C351.246 352.348 399.209 350.106 445.453 359.835L584.511 389.091C615.711 395.655 647.758 397.203 679.446 393.678L770.654 383.53C788.626 381.531 806.816 383.19 824.129 388.409V388.409C847.132 395.342 871.576 395.962 894.901 390.203L1078 345" stroke="#C1281C" stroke-width="3"/>
<path d="M180.486 375.628L58 356.087V409H1078V345L894.91 390.557C871.586 396.361 847.125 395.736 824.127 388.75C806.818 383.492 788.618 381.819 770.641 383.835L679.817 394.02C647.887 397.6 615.589 396.028 584.157 389.363L445.479 359.958C399.23 350.151 351.235 352.41 306.11 366.517C265.501 379.212 222.503 382.331 180.486 375.628Z" fill="url(#paint2_linear_611_9207)"/>
<defs>
<linearGradient id="paint0_linear_611_9207" x1="568" y1="175" x2="568" y2="409" gradientUnits="userSpaceOnUse">
<stop stop-color="#039855" stop-opacity="0.04"/>
<stop offset="1" stop-color="#1EB649" stop-opacity="0.45"/>
</linearGradient>
<linearGradient id="paint1_linear_611_9207" x1="566.397" y1="175.014" x2="566.397" y2="409.014" gradientUnits="userSpaceOnUse">
<stop stop-color="#FFE818" stop-opacity="0"/>
<stop offset="1" stop-color="#FFE818" stop-opacity="0.58"/>
</linearGradient>
<linearGradient id="paint2_linear_611_9207" x1="569.116" y1="315.772" x2="569.116" y2="409.504" gradientUnits="userSpaceOnUse">
<stop stop-color="#C1281C" stop-opacity="0"/>
<stop offset="1" stop-color="#D92D20" stop-opacity="0.87"/>
</linearGradient>
</defs>
</svg>
