<svg width="40" height="40" viewBox="0 0 40 40" fill="none" xmlns="http://www.w3.org/2000/svg">
<g clip-path="url(#clip0_253_8125)">
<path fill-rule="evenodd" clip-rule="evenodd" d="M6.6665 20.0007C6.6665 19.0802 7.4127 18.334 8.33317 18.334H31.6665C32.587 18.334 33.3332 19.0802 33.3332 20.0007C33.3332 20.9211 32.587 21.6673 31.6665 21.6673H8.33317C7.4127 21.6673 6.6665 20.9211 6.6665 20.0007Z" fill="#25324B"/>
<path fill-rule="evenodd" clip-rule="evenodd" d="M7.15466 18.8221C7.80553 18.1713 8.86081 18.1713 9.51168 18.8221L19.5117 28.8221C20.1626 29.473 20.1626 30.5283 19.5117 31.1792C18.8608 31.83 17.8055 31.83 17.1547 31.1792L7.15466 21.1792C6.50379 20.5283 6.50379 19.473 7.15466 18.8221Z" fill="#25324B"/>
<path fill-rule="evenodd" clip-rule="evenodd" d="M19.5117 8.82214C20.1626 9.47301 20.1626 10.5283 19.5117 11.1792L9.51168 21.1792C8.86081 21.83 7.80553 21.83 7.15466 21.1792C6.50379 20.5283 6.50379 19.473 7.15466 18.8221L17.1547 8.82214C17.8055 8.17127 18.8608 8.17127 19.5117 8.82214Z" fill="#25324B"/>
</g>
<defs>
<clipPath id="clip0_253_8125">
<rect width="40" height="40" fill="white"/>
</clipPath>
</defs>
</svg>
