<svg width="17" height="20" viewBox="0 0 17 20" fill="none" xmlns="http://www.w3.org/2000/svg">
<path fill-rule="evenodd" clip-rule="evenodd" d="M11.586 0C12.1164 0.000113275 12.625 0.210901 13 0.586L16.414 4C16.7891 4.37499 16.9999 4.88361 17 5.414V14C17 14.5304 16.7893 15.0391 16.4142 15.4142C16.0391 15.7893 15.5304 16 15 16H13V18C13 18.5304 12.7893 19.0391 12.4142 19.4142C12.0391 19.7893 11.5304 20 11 20H2C1.46957 20 0.960859 19.7893 0.585786 19.4142C0.210714 19.0391 0 18.5304 0 18V6C0 5.46957 0.210714 4.96086 0.585786 4.58579C0.960859 4.21071 1.46957 4 2 4H4V2C4 1.46957 4.21071 0.960859 4.58579 0.585786C4.96086 0.210714 5.46957 0 6 0H11.586ZM4 6H2V18H11V16H6C5.46957 16 4.96086 15.7893 4.58579 15.4142C4.21071 15.0391 4 14.5304 4 14V6ZM10 2H6V14H15V7H11.5C11.1271 6.99998 10.7676 6.86108 10.4916 6.61038C10.2156 6.35968 10.0428 6.01516 10.007 5.644L10 5.5V2ZM12 2.414V5H14.586L12 2.414Z" fill="black"/>
</svg>
