<svg width="21" height="20" viewBox="0 0 21 20" fill="none" xmlns="http://www.w3.org/2000/svg">
<path d="M17.8608 0H14.0513C13.6004 0 13.235 0.365482 13.235 0.816326C13.235 1.26717 13.6004 1.63265 14.0513 1.63265H17.8608C18.6122 1.63265 19.2214 2.24179 19.2214 2.9932V6.80272C19.2214 7.25357 19.5868 7.61905 20.0377 7.61905C20.4885 7.61905 20.854 7.25357 20.854 6.80272V2.9932C20.854 1.3401 19.5139 0 17.8608 0Z" fill="black"/>
<path d="M3.8472 18.3673H7.65673C8.10757 18.3673 8.47305 18.7328 8.47305 19.1837C8.47305 19.6345 8.10757 20 7.65673 20H3.8472C2.1941 20 0.854004 18.6599 0.854004 17.0068V13.1973C0.854004 12.9056 1.00959 12.6361 1.26217 12.4903C1.51474 12.3445 1.82592 12.3445 2.07849 12.4903C2.33107 12.6361 2.48666 12.9056 2.48666 13.1973V17.0068C2.48666 17.7582 3.09579 18.3673 3.8472 18.3673Z" fill="black"/>
<path d="M19.2214 13.1984C19.2214 12.747 19.5868 12.381 20.0377 12.381C20.4843 12.3809 20.8481 12.7403 20.854 13.1875V17.0025C20.854 18.658 19.5139 20 17.8608 20H14.0513C13.6004 20 13.235 19.634 13.235 19.1825C13.235 18.731 13.6004 18.365 14.0513 18.365H17.8608C18.6122 18.365 19.2214 17.755 19.2214 17.0025V13.1984Z" fill="black"/>
<path d="M3.8472 0H7.65673C8.10757 0 8.47305 0.365482 8.47305 0.816326C8.47305 1.26717 8.10757 1.63265 7.65673 1.63265H3.8472C3.09579 1.63265 2.48666 2.24179 2.48666 2.9932V6.80272C2.48666 7.25357 2.12118 7.61905 1.67033 7.61905C1.21949 7.61905 0.854004 7.25357 0.854004 6.80272V2.9932C0.854004 1.3401 2.1941 0 3.8472 0Z" fill="black"/>
</svg>
