<svg width="45" height="44" viewBox="0 0 45 44" fill="none" xmlns="http://www.w3.org/2000/svg">
<rect x="0.5" width="44" height="44" rx="22" fill="#0C4498"/>
<path fill-rule="evenodd" clip-rule="evenodd" d="M24.4268 16.1936H29.4487C31.5001 16.1994 33.16 17.864 33.16 19.9154V28.1244C33.16 30.1742 31.4984 31.8358 29.4487 31.8358H15.2114C14.2262 31.8386 13.2806 31.4485 12.584 30.7518C11.8873 30.0552 11.4972 29.1096 11.5 28.1244V15.7009C11.5115 13.6576 13.1681 12.0057 15.2114 12H20.2332C21.3912 12 22.33 12.9388 22.33 14.0968C22.33 15.2548 23.2688 16.1936 24.4268 16.1936ZM27.0373 28.8688L30.1825 25.6292L30.1616 25.5978C30.359 25.278 30.3025 24.8632 30.0267 24.6078C29.7509 24.3525 29.333 24.328 29.0293 24.5494L26.3978 27.2438L25.3494 26.1954C25.0274 25.9863 24.6015 26.0404 24.3419 26.3234C24.0824 26.6063 24.0651 27.0352 24.301 27.3381L25.9365 28.8898C26.0791 29.0303 26.271 29.1093 26.4712 29.1099C26.6846 29.1086 26.8885 29.0217 27.0373 28.8688Z" fill="white"/>
</svg>
