<svg width="45" height="44" viewBox="0 0 45 44" fill="none" xmlns="http://www.w3.org/2000/svg">
<rect x="0.5" width="44" height="44" rx="22" fill="#0C4498"/>
<path d="M25.58 25.6698L27.13 23.8698C27.2524 23.7108 27.4336 23.6076 27.6328 23.5831C27.832 23.5587 28.0327 23.6151 28.19 23.7398C28.5004 24.0126 28.5359 24.4835 28.27 24.7998L26.72 26.5898C26.5787 26.7577 26.3694 26.8532 26.15 26.8498C25.9693 26.8563 25.7934 26.7917 25.66 26.6698C25.3769 26.4082 25.3421 25.9731 25.58 25.6698Z" fill="white"/>
<path fill-rule="evenodd" clip-rule="evenodd" d="M29.2899 16.5498H24.4999C23.3954 16.5498 22.4999 15.6544 22.4999 14.5498C22.4999 13.4452 21.6045 12.5498 20.4999 12.5498H15.7099C13.761 12.5553 12.1809 14.1309 12.1699 16.0798V27.9298C12.1673 28.8695 12.5394 29.7714 13.2038 30.4359C13.8683 31.1004 14.7703 31.4725 15.7099 31.4698H29.2899C31.245 31.4698 32.8299 29.8849 32.8299 27.9298V20.0998C32.83 18.1431 31.2466 16.5553 29.2899 16.5498ZM30.4999 27.0498L27.3999 29.3098C27.1009 29.5235 26.699 29.5235 26.3999 29.3098L23.2999 27.0498C22.998 26.8364 22.8686 26.4524 22.9799 26.0998L23.6499 22.8998C23.786 22.3097 24.3143 21.8937 24.9199 21.8998H28.9199C29.5267 21.8965 30.0564 22.3103 30.1999 22.8998L30.8599 26.0998C30.9704 26.4615 30.8224 26.8521 30.4999 27.0498Z" fill="white"/>
</svg>
