<svg width="44" height="44" viewBox="0 0 44 44" fill="none" xmlns="http://www.w3.org/2000/svg">
<rect width="44" height="44" rx="22" fill="#0C4498"/>
<path d="M25.1901 18.6596C25.1927 19.2458 25.4281 19.8069 25.8445 20.2194C26.2608 20.632 26.824 20.8623 27.4101 20.8596H31.7201C31.9702 20.8651 32.1702 21.0695 32.1701 21.3196V23.7196C32.1701 25.715 30.5555 27.3341 28.5601 27.3396H18.5001C16.5008 27.3396 14.8801 25.7189 14.8801 23.7196V17.4996C14.8856 15.5043 16.5047 13.8896 18.5001 13.8896H24.7401C24.9886 13.8896 25.1901 14.0911 25.1901 14.3396V18.6596Z" fill="white"/>
<path d="M31.6601 19.9196H27.5301C26.79 19.9196 26.1901 19.3197 26.1901 18.5796V14.3996C26.1889 14.1952 26.3122 14.0106 26.5016 13.9335C26.691 13.8564 26.9082 13.9024 27.0501 14.0496L32.0501 19.0496C32.2129 19.1947 32.2629 19.4285 32.1737 19.6275C32.0845 19.8264 31.8767 19.9447 31.6601 19.9196Z" fill="white"/>
<path d="M28.7301 28.2996C28.1179 29.5231 26.8682 30.2969 25.5001 30.2996H15.4401C14.4809 30.2997 13.5612 29.9179 12.8839 29.2388C12.2066 28.5596 11.8274 27.6388 11.8301 26.6796V20.4296C11.8286 19.0222 12.6496 17.7438 13.9301 17.1596C13.9148 17.3427 13.9148 17.5266 13.9301 17.7096V23.9296C13.9299 26.3237 15.8562 28.2723 18.2501 28.2996H28.7301Z" fill="white"/>
</svg>
