<svg width="44" height="44" viewBox="0 0 44 44" fill="none" xmlns="http://www.w3.org/2000/svg">
<rect width="44" height="44" rx="22" fill="#0C4498"/>
<path d="M24.17 19.1397H28.79C29.0368 19.16 29.2677 19.0158 29.3577 18.785C29.4477 18.5543 29.3754 18.2918 29.18 18.1397L23.63 12.6897C23.4778 12.4942 23.2154 12.4219 22.9846 12.5119C22.7538 12.6019 22.6096 12.8328 22.63 13.0797V17.6497C22.6297 18.0537 22.7936 18.4404 23.0839 18.7213C23.3742 19.0023 23.7662 19.1532 24.17 19.1397Z" fill="white"/>
<path fill-rule="evenodd" clip-rule="evenodd" d="M24.07 20.2397H28.85C29.1261 20.2397 29.35 20.4635 29.35 20.7397V27.6597C29.35 29.8688 27.5591 31.6597 25.35 31.6597H18.46C16.2508 31.6597 14.46 29.8688 14.46 27.6597V16.4997C14.46 14.2905 16.2508 12.4997 18.46 12.4997H21.13C21.4039 12.505 21.6246 12.7258 21.63 12.9997V17.7797C21.6273 18.4295 21.8829 19.0537 22.3405 19.515C22.7981 19.9764 23.4202 20.237 24.07 20.2397ZM20.7913 28.6337C20.857 28.3688 20.7765 28.089 20.58 27.8997L19.94 27.2497L20.58 26.6097C20.8724 26.3169 20.8724 25.8425 20.58 25.5497C20.4407 25.4067 20.2495 25.3261 20.05 25.3261C19.8504 25.3261 19.6592 25.4067 19.52 25.5497L18.87 26.1897L18.23 25.5497C18.0907 25.4067 17.8995 25.3261 17.7 25.3261C17.5004 25.3261 17.3092 25.4067 17.17 25.5497C16.8775 25.8425 16.8775 26.3169 17.17 26.6097L17.81 27.2497L17.17 27.8997C16.8662 28.1924 16.8572 28.6759 17.15 28.9797C17.4427 29.2834 17.9262 29.2924 18.23 28.9997L18.87 28.3497L19.52 28.9997C19.7165 29.189 19.999 29.2592 20.2613 29.1837C20.5235 29.1082 20.7255 28.8985 20.7913 28.6337Z" fill="white"/>
</svg>
