<svg width="48" height="48" viewBox="0 0 48 48" fill="none" xmlns="http://www.w3.org/2000/svg">
<path d="M27.2152 23.399C27.358 23.5361 27.5472 23.6147 27.7452 23.619C27.9436 23.6167 28.1335 23.5378 28.2752 23.399L31.2052 20.469C31.2753 20.3976 31.3298 20.3125 31.3652 20.219C31.4448 20.0373 31.4448 19.8306 31.3652 19.649C31.3272 19.5597 31.273 19.4783 31.2052 19.409L28.2752 16.479C28.0882 16.2783 27.8066 16.1957 27.5409 16.2636C27.2752 16.3314 27.0677 16.5389 26.9998 16.8047C26.9319 17.0704 27.0145 17.352 27.2152 17.539L28.8652 19.189H21.7752C18.9033 19.189 16.5752 21.5171 16.5752 24.389V26.669C16.5854 29.441 18.8038 31.6993 21.5752 31.759H28.7552C28.9585 31.7643 29.1554 31.688 29.302 31.5471C29.4486 31.4061 29.5326 31.2123 29.5352 31.009C29.5352 30.5986 29.2055 30.2644 28.7952 30.259H21.6352C19.6365 30.1994 18.0489 28.5586 18.0552 26.559V24.389C18.0552 22.3455 19.7117 20.689 21.7552 20.689H28.8452L27.1952 22.339C26.9082 22.6373 26.9171 23.1117 27.2152 23.399Z" fill="#0C4498"/>
</svg>
