<svg width="48" height="48" viewBox="0 0 48 48" fill="none" xmlns="http://www.w3.org/2000/svg">
<path d="M24.05 22.4952H20.93C20.5158 22.4952 20.18 22.1594 20.18 21.7452C20.18 21.3309 20.5158 20.9952 20.93 20.9952H24.05C24.4642 20.9952 24.8 21.3309 24.8 21.7452C24.8 22.1594 24.4642 22.4952 24.05 22.4952Z" fill="#0C4498"/>
<path d="M20.93 24.1052H27.07C27.4842 24.1052 27.82 24.4409 27.82 24.8552C27.82 25.2694 27.4842 25.6052 27.07 25.6052H20.93C20.5158 25.6052 20.18 25.2694 20.18 24.8552C20.18 24.4409 20.5158 24.1052 20.93 24.1052Z" fill="#0C4498"/>
<path d="M26.23 27.0352H20.93C20.5158 27.0352 20.18 27.3709 20.18 27.7852C20.18 28.1994 20.5158 28.5352 20.93 28.5352H26.23C26.6442 28.5352 26.98 28.1994 26.98 27.7852C26.98 27.3709 26.6442 27.0352 26.23 27.0352Z" fill="#0C4498"/>
<path fill-rule="evenodd" clip-rule="evenodd" d="M26.27 13.5352C27.0792 13.534 27.7474 14.1671 27.79 14.9752C30.1649 15.2422 31.9696 17.2355 32 19.6252V29.7152C31.9945 32.3362 29.8711 34.4597 27.25 34.4652H20.75C18.1289 34.4597 16.0055 32.3362 16 29.7152V19.6252C16.0304 17.2355 17.8351 15.2422 20.21 14.9752C20.2575 14.1693 20.9228 13.539 21.73 13.5352H26.27ZM26.29 14.9752H21.73V16.1652H26.29V14.9752ZM30.5 29.7152C30.5 31.5117 29.0465 32.9697 27.25 32.9752H20.75C18.9535 32.9697 17.5 31.5117 17.5 29.7152V19.6252C17.504 18.034 18.6594 16.6797 20.23 16.4252C20.3528 17.1565 20.9884 17.6905 21.73 17.6852H26.27C27.0116 17.6905 27.6472 17.1565 27.77 16.4252C29.3406 16.6797 30.496 18.034 30.5 19.6252V29.7152Z" fill="#0C4498"/>
</svg>
